<svg xmlns="http://www.w3.org/2000/svg" xmlns:xlink="http://www.w3.org/1999/xlink" width="435" height="435" viewBox="0 0 435 435">
  <defs>
    <clipPath id="clip-path">
      <circle id="Elipse_560" data-name="Elipse 560" cx="217.5" cy="217.5" r="217.5" transform="translate(19765 12091)" fill="#fff"/>
    </clipPath>
  </defs>
  <g id="Enmascarar_grupo_229" data-name="Enmascarar grupo 229" transform="translate(-19765 -12091)" clip-path="url(#clip-path)">
    <g id="ChatGPT-Image-5-ene-2026_-11_08_15-p.m." transform="translate(19469.314 12895.227)">
      <path id="Trazado_39890" data-name="Trazado 39890" d="M494.5-881.4c-72.6,4.7-140.7,30.8-196,75.1-13.3,10.7-38.2,35.4-48.6,48.3-31.8,39.4-53.3,82.3-65.3,130.5-10.5,42.4-11.8,90.9-3.5,134.3,14.7,76.8,57,146.4,119.4,196.2,55.7,44.4,120.3,69.2,193.3,74.1,34.2,2.4,77.9-2.5,112.7-12.5,104.3-29.9,188.6-107.4,225.3-207.3A316.713,316.713,0,0,0,845-615c-13.6-67.9-50.5-131.9-102.8-178.3-54.9-48.7-119.9-78-191.2-86.1C537.3-881,505.4-882.1,494.5-881.4ZM546-868.9c65.6,6,132,34.5,183.1,78.6,90.7,78.3,130.2,196,103.3,308.5l-2.5,10.6-5.7,2.1a31.244,31.244,0,0,1-11.7,1.9,44.451,44.451,0,0,0-9.5.5l-3.6.8-1.3-8.8c-.8-4.8-2.9-15.3-4.7-23.3-1.9-7.9-3.4-14.8-3.4-15.4,0-.5.9-.1,2,.9,1.5,1.4,2,1.5,2,.4.1-2,4,3.2,4,5.3,0,2,1.5,2.4,2.6.7.4-.8,1.2-.2,2.1,1.5.7,1.4,1.7,2.6,2.2,2.6.4,0,1.4,1.2,2.1,2.7.9,1.9,1.4,2.4,1.8,1.4.3-1,1.1-.3,2.3,2,1,1.9,1.8,2.8,1.9,2.1.1-2.8,2-.9,2,2v3.2l3-2.9c6.1-5.9,3.1-15.9-7.5-25.3-2.7-2.4-6.2-4.6-7.7-4.9-1.6-.3-3.1-.9-3.3-1.3-.7-1.1,6.2-2.2,8.5-1.5,1.4.4,2,.2,2-.8,0-1.8,3.4-1.2,5.1.9s3.1,1.7,2.4-.6c-.7-2.4.7-2.6,2.5-.5a4.121,4.121,0,0,0,2.1,1.5c.5,0,.6-.7.3-1.5-.9-2.3,1.3-1.8,3,.6,1.4,2.1,1.5,2.1,2.1-1.4,2.1-11.2-12.1-18.7-27-14.2-2.7.8-5.1,1.3-5.2,1.1-.2-.2,1-1.8,2.7-3.6,2.1-2.3,2.7-3.6,1.9-4-1.3-.9-.5-1.5,3.4-2.4,3-.7,3.7-2.6,1-2.6-2.2,0-.5-1.7,2.2-2.2a1.779,1.779,0,0,0,1.7-2.1c-.2-1.4.5-1.7,4-1.7l4.3-.1-3-1.7c-2.1-1.2-5.3-1.7-11.2-1.7-7.4,0-8.5.3-12.4,3-4.1,2.9-5.9,5.9-8.4,13.9-.5,1.6-1.3,1.2-6-3.3-7.9-7.5-14.3-9.7-21-7.1-2.3.9-3.8.2-13.3-5.8-5.9-3.8-13.1-8.2-16.1-9.8-7-3.7-14.5-10.5-17.6-15.8A150.076,150.076,0,0,1,701-601c-4.5-11.6-6.5-13.9-12.4-14a65.472,65.472,0,0,1-10.2-1.2l-6.3-1.1-4.1,3.6a22.893,22.893,0,0,1-4.6,3.7c-2.7,0-7.9-5.1-11-10.6-2-3.5-4.1-6.4-4.7-6.4a29.219,29.219,0,0,1-5-1.1c-3.1-.8-4.6-2.2-7.7-6.9-3.4-5.3-12-26.9-17.9-45-4.7-14.3-10.4-17.6-11.3-6.5l-.3,4-2.2-4.2c-1.2-2.2-5.6-7.1-9.7-10.8-6.5-5.8-7.5-7.2-8-11q-1.35-8.55-8.7-10.5c-2.2-.6-4.6-1.4-5.4-1.6-1.1-.5-1.3.7-.8,6.7.5,5.3.3,7-.5,6.5a2.98,2.98,0,0,1-1.2-2.4c0-2.6-3.9-12.5-5.8-14.6a64.527,64.527,0,0,0-8.4-6.2c-5.9-3.8-6.9-4.9-8.2-9.1-2.1-6.9-9.1-25.4-11-29.1s-5.3-6.3-7.3-5.5c-.7.3-2.6,2.9-4,5.7a65.407,65.407,0,0,1-6.2,9.6c-2.1,2.5-4.8,6.1-6.1,8l-2.4,3.5,4.6-4.1a44.758,44.758,0,0,1,6.7-5.3c1.8-1,1.7-.5-1.2,3.6-4.4,6.3-8.7,16.3-8.7,20.2,0,5.8,3,23.2,4.5,26.1a17.287,17.287,0,0,1,1.5,6.6c0,3.4-4.6,23.2-8.9,38.4-3.5,12.1-3.6,11.9,3.4,5,3.6-3.6,6.5-5.9,6.5-5.3,0,1-15.9,25-20.1,30.4a28.266,28.266,0,0,0-3.5,6.5l-1.5,3.9.5-4.5c.3-2.5,1.1-9.7,1.7-16s2.2-17.1,3.4-24c2.8-14.9,5.8-40.2,5.3-45-.2-2.7-1.1-.8-4.2,9.8-2.1,7.3-5.6,16.6-7.8,20.8A196.412,196.412,0,0,0,477.5-643c-1.5,5.7-3.6,12.6-4.6,15.3a28.548,28.548,0,0,0-1.9,7.2c0,1.4-.4,2.5-.9,2.5-1.2,0-2.1-5.1-2.2-11.9v-5.6l-1.9,7.2a118.631,118.631,0,0,1-4.5,13.5c-1.5,3.5-3.8,9.3-5.2,13.1-1.4,3.7-2.8,6.5-3.1,6.3-.2-.3.3-6.2,1.2-13.3.8-7,1.9-15.7,2.2-19.2.5-4.9,1.7-8.3,5.1-14.4,3.3-5.9,4.7-9.9,5.4-14.7.5-3.6,1.9-11.7,3.1-18.1l2.2-11.7-2.2-5.7c-3-7.7-2.8-11.7,1.2-28,1.9-7.7,3.7-16.2,4.1-18.8l.6-4.8-3.8.6c-2.1.4-4.5.9-5.3,1.1-3.1.8-15.3,22.4-13.7,24.1.3.2,1.8-2,3.5-4.9s4-6.4,5-7.7c1.8-2.2,1.7-1.7-.5,5-6.1,18.7-7.3,24-7.3,33.3,0,8-.3,9.6-2.7,13.6-2.7,4.6-7.8,18.3-13.8,37-1.8,5.8-4.6,14.1-6.1,18.5-2.6,7.1-2.9,7.7-3.4,5s-1-1.9-5.5,7.7c-2.7,5.9-5.1,10.5-5.3,10.3-.2-.1.3-4.3,1.2-9.2,2.7-16.1,2.8-17.1.9-19-2.6-2.6-13.4-10.8-16.1-12.2-3.8-2-7-.6-7.8,3.4-.4,2.1-2.9,6.1-7,10.9-6.8,7.9-7.8,9.7-4.1,7.4,1.2-.8,4-2.5,6.2-3.7,3.8-2.2,3.7-2.1-1.7,3A50.91,50.91,0,0,0,374.5-594c-2.4,10.8-2.4,10.7-3.5,9-1.3-2-1.3-13.4,0-20,.6-2.9.9-5.5.7-5.6-.7-.8-13.3,1.9-14.5,3-.7.7-3,6.3-5.1,12.4-2.2,6.1-5.1,12.6-6.5,14.3s-2.6,3.6-2.6,4.2c0,2.5-5.3,12.4-8.3,15.4-4.2,4.5-5.3,4.1-2.2-.6,2.4-3.5,9.7-23.1,9-23.9-.2-.2-1.4.3-2.7,1.2-1.2.8-4.2,2.5-6.6,3.8-3.9,2.1-20.3,16.2-32.7,28.1-4.8,4.7-4.9,4.9-2,4.2,1.7-.3,5.5-2.1,8.5-3.9,6.1-3.7,9.7-4.9,10.6-3.5.3.5,1.8,0,3.4-1.1,2.7-1.9,2.5-1.4-3.5,12.5-3.5,8-6,14.5-5.6,14.5.5,0,2.7-2.6,4.9-5.9,2.7-3.7,5.5-6.5,7.9-7.6a63.183,63.183,0,0,0,6.5-3.6,9.017,9.017,0,0,1,4.4-1.9c1.9,0,16-7,20.6-10.2l2.7-1.8-.9,3.2c-1.3,4.4-6.5,8.8-13.9,11.6-6.6,2.5-10.6,6.5-14.2,13.9-1.1,2.3-2.6,4.4-3.2,4.7-.7.3.6.3,2.8,0,12.3-1.6,76.9-22.7,86.7-28.2,9.2-5.2,22.4-14.8,29.3-21.3,8.1-7.7,7.9-7.5,21-12.4,15.8-5.9,18.3-7.5,27.4-17.7a119.315,119.315,0,0,1,15.5-14.2,168.942,168.942,0,0,0,20.9-16.5l4.7-4.4,12.2-.2c11.8-.2,12-.2,9.7,1.6-1.3,1-6.6,3.7-11.7,6s-9.1,4.4-8.9,4.6,2.1-.4,4.2-1.2c2-.9,4-1.4,4.3-1.1a.647.647,0,0,1,.1.9c-16.8,12.2-22.8,17.1-20.3,16.6a12.874,12.874,0,0,1,2.8,0c2,.1,2,.1,0,1.6-1,.9,1.7-.2,6.1-2.3a85.032,85.032,0,0,1,10.3-4.6l2.2-.7-2.5,3.7c-2.5,3.7-2.8,4.9-2.5,9.5a4.536,4.536,0,0,1-1.9,4.1c-1.2.8-1.8,1.8-1.3,2.3.4.5.2.5-.5.1-1.2-.6-7.3,1.8-7.3,3,0,.2.9,0,1.9-.6,1.9-1,1.9-.9.5,1.7a15.945,15.945,0,0,0-1.4,4,1.986,1.986,0,0,1-1.2,1.6c-.8.3-.6.6.5.6A1.927,1.927,0,0,1,531-589c0,1.8,1.9,7,3,8,.3.3.3,2.3-.1,4.5l-.5,4-.8-5.2c-.5-2.9-1.6-5.9-2.7-6.8-1.6-1.6-1.9-1.5-3.3,1.4a12.864,12.864,0,0,0-1.6,4.5,53.732,53.732,0,0,1-1.1,6.6c-1.6,7.4-3.6,8.4-18.1,9-6.5.4-12.3,1.1-12.8,1.6-2,2,1.8,3.7,8,3.8,3.3,0,5.2.3,4.3.7-1.2.4-.8.7,1.5,1.2,1.7.4,10.5,4,19.6,8,11.7,5.3,16.9,7.1,18,6.5,2.1-1.2,2-3.4-.1-4.7-1-.6-1.4-1.1-1-1.1,1.3,0,16.7,6.1,16.7,6.7,0,.3-.7.3-1.5-.1-.9-.3-1.5,0-1.5.9,0,.8-1.1,1.7-2.5,2.1-1.4.3-2.2,1-1.9,1.5a.552.552,0,0,1-.5.9c-1.7,0-1.3,2.1.7,3.6,1.6,1.2,1.5,1.3-.5,1.1-1.2,0-2.1-.6-2-1.2.1-.5-.4-.9-1-.8a1.022,1.022,0,0,1-1.3-1.1c0-.7-1.1-2.5-2.5-4s-2.5-2.3-2.5-1.7c0,.5-3,0-6.6-1.1s-6.8-1.7-7.1-1.5c-.2.3.9.8,2.6,1.2,3.5.7,4.7,2,3,3.1-.8.4-.9.3-.5-.4s.3-1.2-.2-1.2-1.3,1.9-1.8,4.2c-.7,3.4-1.4,4.4-3.2,4.6-1.2.2-2.2.8-2.2,1.3,0,.6.4.8.8.5.5-.3.9.1.9.8,0,1.1-.5,1.2-2.3.4-1.3-.6-2.2-1.4-2-1.7s-.7-.7-2-.7c-1.3-.1-5.9-2.3-10.3-4.8S503-539,501.8-539c-2.8,0-5.6,4.1-7.8,11.4-1.6,5-1.6,5-7,6.2-3,.7-13.8,3.3-24,5.8s-23.9,5.8-30.4,7.3c-6.6,1.6-12.1,3.3-12.3,4-.3.9.5.9,3.2.2,3.5-1,28.1.3,29.3,1.6.3.3-2.4.5-5.9.5-12.9.1-85.4,7.1-83.6,8.1,3.7,2.1,46.2,6.6,88.2,9.4,51.2,3.4,80.7,6.3,105.5,10.6,42.8,7.3,61.3,14,56.1,20.3-3.4,4.1-20.6,9.3-55.1,16.5-41.7,8.9-65.5,16.7-68.2,22.6-4,8.9,17.6,16,76.2,25.1,12.4,1.9,28,4.6,34.7,5.9,6.7,1.4,12.5,2.5,12.8,2.5s.5.4.5,1-2.9,1-6.8,1c-8.2,0-31.3,1.2-30.9,1.6.6.6,25.5,3.4,43.7,4.9,34.2,2.7,66,6.9,66,8.5,0,1.5-12.8,3.3-53,7.4-40.8,4.2-58.5,5.6-82,6.2-12.4.4-24.1,1-26,1.3-3.2.7-2.8.8,3.4,1.5a57.708,57.708,0,0,1,10.9,2.2c6.3,2.2,33.2,3.4,80,3.4,24.2,0,42.6.4,42.3.9-.7,1-11.3,2.4-40.6,5.1-28.5,2.7-55.8,4-87.9,4-14.5,0-26.2.2-26,.4.2.3,8.5,1.4,18.4,2.5,10,1.1,28.4,3.6,41,5.5a532.5,532.5,0,0,0,69.5,5.7c7.8.1,8.1.2,4,1-16.3,3.3-66.8,9.4-89,10.9-27.1,1.8-40.7,2.9-42.4,3.6-3.4,1.3-1.3,2.1,7.2,2.7a177.407,177.407,0,0,1,18.9,2.6c21,4.2,52,7,79.3,7.2,9.1.1,12.5.4,10.5.9-4.9,1.4-38.6,4.9-58,6.1-19.2,1.1-44.3,4.3-45.7,5.7-1.2,1.2,4.8,2,29.6,3.7,11.5.9,21.1,1.7,21.4,1.9.5.5-3.1,1.2-17.3,3.3-17,2.5-73.5,2.5-87.5,0-8.2-1.4-20.4-2.9-63-7.5-5.1-.5,8.7-1,43.5-1.4,48.2-.6,63.6-1.5,65.9-3.8.6-.6.6-1,0-1-2.1,0-31.7-3.1-43.9-4.5-20-2.4-30.5-4.7-30.5-6.5,0-1.9,20.8-5,49.5-7.5a56.3,56.3,0,0,0,12.5-2.6,184.323,184.323,0,0,1,18.5-4.3c13-2.3,13-2.3,7.5-2.9-3-.3-22.1-.9-42.5-1.2-20.3-.3-47.8-1.2-61-2-29.1-1.8-67.3-4.4-70-4.9-1.1-.2,27.3-.4,63.1-.5,70-.1,111-.9,109.7-2.2-1.1-1.1-11.1-2.5-30.8-4.4-9.3-.9-24-2.4-32.5-3.5-8.5-1-18.2-2.1-21.5-2.5a71.11,71.11,0,0,1-10-1.7c-3.6-.9-3.8-1.1-2.2-2.3,2.9-2.1,16.2-3.6,62.7-7,10.7-.8,21-1.5,22.8-1.5,1.7,0,3.2-.4,3.2-.9,0-1.3-6-2-28.5-3.1-11.5-.5-30.7-1.5-42.5-2-42.2-2.1-65.2-4.9-61.1-7.4,1.1-.7,20-2.9,37.1-4.2,16.7-1.3,5.3-2.2-44-3.4-25.6-.6-54.1-1.5-63.5-2-9.3-.5-25.5-1.2-36-1.7l-19-.8,34-.6c18.7-.3,53.1-.7,76.5-.8,44.6-.1,114-1.7,114.8-2.6a.647.647,0,0,0,.1-.9c-.6-.6-33.9-2.6-61.9-3.6-37-1.4-97.4-5.1-98.3-6-.5-.4,3.5-1.1,9-1.5,23-1.5,50.8-3.6,51-3.9.9-.9-21.5-1.6-48.2-1.6-31,0-48.5-.7-48.5-2,0-1.1,2.9-1.7,17.5-3.5,7.2-.8,16.6-2,21-2.5,4.4-.6,16.8-1.9,27.5-3,38.4-3.9,63.1-8,46.8-7.6-11.5.2-22.8-.4-22.8-1.4,0-.9,2.3-1.7,27.7-9.5,15.7-4.8,46.5-12,82.3-19,45.1-8.9,58.5-13.4,56.4-18.9-1.8-4.7-23.5-10.3-52.4-13.6-9.5-1.1-81-6.3-108-7.9-9.6-.6-21-1.3-25.2-1.6-14.3-.8-8,1,13.5,3.9,11.6,1.6,23.2,3.3,25.7,3.8,6.6,1.4,27.3,4.3,45,6.4,20.2,2.5,14.4,2.9-20.1,1.5-44.1-1.8-42.2-1.2,10.6,3.3,9.9.8,25.4,2.1,34.5,2.8l16.5,1.3L441-458l-44.5.5,20.5.9c24,1.1,22.1,2.4-4,2.7-9.1.1-24.4.4-34,.8l-17.5.6,25.5,2.4c14,1.3,33,2.6,42.3,2.8,9.2.3,16.7.9,16.7,1.4a.882.882,0,0,1-.8.9c-.9,0-39.4,7.1-51.2,9.4a171.851,171.851,0,0,1-20,2l-12.5.6-4.5-3.1c-4.3-3-4.8-3.1-12.5-2.6-8.6.4-14.6-1-22.4-5.5-3.1-1.7-4.2-3.1-4.7-5.6-.8-4.4.3-17.9,2.3-26.7l1.6-7,2.1,4.5c2.3,5,3.9,7,5.5,7,.6,0,1.1.8,1.1,1.9a4.683,4.683,0,0,0,1.4,3.1,5.926,5.926,0,0,1,1.8,3.3c.3,1.9.7,1.5,2.6-2,3.5-6.6,2.8-10.6-2.7-16.7-2.2-2.5-2.3-2.8-.6-2.1,1.1.4,4.2,1.6,6.8,2.6,2.7,1.1,5.2,1.7,5.7,1.4s1.6.7,2.4,2.2l1.5,2.8.1-3.8c0-4.6-2.4-9.1-5.7-10.6a31.824,31.824,0,0,0-7.8-1.7l-5.5-.7,3.2-2.3c1.7-1.3,3.8-2.4,4.6-2.4.7,0,1-.5.7-1-.3-.6.3-1,1.4-1,1.2,0,2.1-.5,2.1-1.1,0-.5.5-.7,1.1-.3.7.4,1,.1.7-.7-.7-2.2-4.9-3.9-9.4-3.9a9.228,9.228,0,0,0-7.3,2.9l-3,2.8-1.1-3.2c-1.8-5.5-5-7.6-12.2-8.1-5.4-.3-5.9-.2-3.5.7,1.5.6,2.6,1.6,2.4,2.2a2.734,2.734,0,0,0,1.2,2.5c1.3,1,.8,1.2-3,.6a17.028,17.028,0,0,0-13.4,4.1c-2,1.6-2,1.6.3,1.1,1.6-.3,2.2,0,1.9.7q-.45,1.2,4.2,1.5c5.4.3,11.1,2,11.1,3.2,0,.5-.6.7-1.4.4-1.6-.6-8.3,2-10.8,4.3-4,3.6-4.8,13.4-1.1,12.9a3.049,3.049,0,0,0,2.1-1.4,1.574,1.574,0,0,1,1.3-1.2c.6,0,2-.9,3.2-2s2.7-1.8,3.4-1.6c.6.3,2.6.1,4.3-.4,3.1-.9,3.2-.8,2.5,1.8-1.6,6.1-3.5,20.1-3.5,25.4v5.8l-4.7-.6c-4.8-.6-6.2-1.3-11.6-5.6-3.1-2.5-7.4-2.8-18.2-1.4-5.9.8-6.1.8-10.3-2.7-5.5-4.7-10.8-5.6-16.3-2.9-3.6,1.8-4.4,1.9-7.2.7-2.9-1.2-3.1-1.6-2.9-5.7.7-11.3,7.5-44.8,9.2-44.8.4,0,1,.7,1.4,1.5a1.879,1.879,0,0,0,1.8,1.3c.7-.2,1.4.8,1.6,2.2.6,4.5,1.1,5.3,2.6,4.1,1.1-.9,1.5-.6,2,1.4.4,1.4,1.1,2.5,1.6,2.5.6,0,1,1.1,1,2.5s.5,2.5,1,2.5c2.3,0,5.2,4.2,4.6,6.6-.7,2.6.3,3.1,2.2,1.2.9-.9,1.2-.5,1.2,1.8a7,7,0,0,1-1.2,4.2c-2.1,2.1-.1,2.3,2.6.1,5.7-4.5,7.3-13.6,3.7-21.4-1.7-3.7-8.3-10.7-14.1-14.8l-2.5-1.7,4.5.6a57.941,57.941,0,0,0,6,.7,6.832,6.832,0,0,1,3.3,1.5c1.6,1.4,1.9,1.4,2.7.2.7-1.2,1.3-1.1,3.3.8,2.9,2.7,3.3,2.7,4.2-.1.7-2.2.7-2.2,1.8.5,1.2,3.1,2.7,3.7,2.7,1.2,0-1.2.7-1,3.1,1.1,1.7,1.4,3.3,2.4,3.5,2.2.8-.8-1.6-10.8-3.1-13.1a24.767,24.767,0,0,0-5.7-5.2c-4-2.8-4.6-2.9-15.4-2.9-11.1,0-11.3,0-10-2a12.846,12.846,0,0,1,4.1-3.4c2-1,2.4-1.5,1.4-2.2-1-.6-.6-1.1,1.4-1.8a18.306,18.306,0,0,1,3.8-1.1.987.987,0,0,0,.9-1,.945.945,0,0,0-1-1c-2.3,0-.8-1.9,2.1-2.5,2-.5,2.9-1.1,2.5-2.1-.6-1.6,3.5-3,6.1-2,1.3.5,1-.1-.8-1.9-2.8-2.9-10.8-4.3-17.3-3.1-4.2.8-10,5.5-12.3,9.9l-1.6,3.1-2.7-6.1c-4-8.8-8.6-11.7-19.3-12.2-4.9-.2-8.3.1-9,.8-.8.8-.2,1.2,2.1,1.7,1.7.4,3,1.1,2.9,1.7-.1.7.8,1.3,2.1,1.5,2.6.4,2.9,1.7.5,3.1-1.6.8-1.5,1.1,1,2,2.9,1.1,3.5,2.6,1.5,3.4-.8.3-.2.9,1.3,1.5a11.1,11.1,0,0,1,4.3,3.8c1.8,2.6,1.8,2.7,0,1.9a31.214,31.214,0,0,0-14.9-2.3c-11.3.8-17.5,6.1-17.5,14.9l.1,4.4,2-2.8c2.5-3.2,3.9-3.5,3.9-.6v2l2.6-2c3.3-2.6,4.4-2.7,3.7-.1-.7,2.5.3,2.5,4.5,0,2.4-1.5,3.2-1.6,3.2-.6,0,.9,1.7,1.6,4.7,2.1l4.7.7-4.8,2.3c-9.8,4.7-18.6,16.8-17.2,23.7.6,3,4.4,8.8,5.8,8.8.4,0,.8-1.3.8-2.8,0-3.7,1-4.6,2.6-2.4,1.3,1.6,1.3,1.6,1.4-.1a2.582,2.582,0,0,1,1.5-2.3,2.675,2.675,0,0,0,1.5-2.1c0-.8.9-1.7,2-2a2.769,2.769,0,0,0,2-2.5c0-1.4.5-1.8,1.9-1.3,1.4.4,2-.1,2.5-1.9.4-1.7,1.1-2.3,2.1-2,1,.4,1.5,0,1.5-1a2.671,2.671,0,0,1,1.8-2.3,10.128,10.128,0,0,0,2.9-2.2c1.1-1.4,1.2-1.4,1.3.1,0,.9-1.3,7-2.9,13.5s-3.7,16.7-4.7,22.6c-1.7,10.1-2,10.8-3.9,10.1a47.128,47.128,0,0,0-9.5-1c-6.1-.1-8.7-.8-14-3.3-3.6-1.7-7.3-3.1-8.2-3.1-3.1,0-8.1-25.9-10.4-53.4-4.8-57.8,7.3-115.4,35.5-169.1A322.6,322.6,0,0,1,330-815.5C394.5-858,467.6-876.1,546-868.9ZM454-593.6c0,.3-.4.8-1,1.1-.5.3-1,.1-1-.4a1.1,1.1,0,0,1,1-1.1C453.6-594,454-593.8,454-593.6Zm90.3,6.1c.4,3.9.3,5-.2,3-.9-3.1-1.4-10.2-.7-9.4A36.575,36.575,0,0,1,544.3-587.5ZM514-556c2,.6,2.1.8.5.8a20.4,20.4,0,0,1-4.5-.8c-2-.6-2.1-.8-.5-.8A20.391,20.391,0,0,1,514-556Zm5.7,1.6a2.026,2.026,0,0,1-1.9.1c-.8-.3-.5-.6.6-.6C519.5-555,520.1-554.7,519.7-554.4ZM758-545c0,.5-.2,1-.4,1-.3,0-.8-.5-1.1-1-.3-.6-.1-1,.4-1A1.028,1.028,0,0,1,758-545Zm3,2.5c-.7.9-1.5,1.3-1.7,1.1-.7-.7.7-2.6,1.9-2.6C761.8-544,761.8-543.4,761-542.5Zm3.4,2.4c.3.5-.1,1.2-1,1.5-2,.8-2.9.1-1.9-1.3C762.3-541.2,763.7-541.3,764.4-540.1Zm3.4,3.7A2.964,2.964,0,0,1,770-534c0,1.5-1.2,1.8-9.2,2.2-10.2.5-14.6,2-19.6,6.9a15.937,15.937,0,0,0-4.5,14.3l.6,3.9L739-510c1.4-2.8,1.8-3,2.4-1.4.6,1.5.9,1.4,2.7-1.5l2-3.2,1.7,2.1,1.8,2.2,1.8-2.7c1.4-2.1,2-2.4,2.6-1.4.7,1,1.1,1,2.4,0a3.7,3.7,0,0,1,3.1-.8,1.575,1.575,0,0,0,2-.3c.4-.6,2.5-1,4.8-1h4.1l-4.5,2.9c-8.8,5.6-12.9,12.8-12.9,23,0,4.5.5,5.6,3.6,9.1,2,2.2,4.1,4,4.6,4,.7,0,.7-.4,0-1.3a9.226,9.226,0,0,1-1.4-3.7c-.2-2.1.1-2.5,2-2.2,2,.3,2.3,0,1.7-1.7-.8-2.6,2.1-7.2,4.1-6.4,1,.4,1.4-.3,1.4-2.6,0-1.7.5-3.1,1-3.1.6,0,1-.9,1-2.1,0-1.8.4-2,2.5-1.5,2.3.6,2.5.4,2.5-2.9,0-1.9.5-3.5,1.1-3.5a4,4,0,0,0,2.4-1.7c1.1-1.4,1.5-.7,3.3,4.8,3,9.1,6.2,25.9,6.9,36.1.6,8.7.6,8.7-2,9.3a6.837,6.837,0,0,1-4.5-.4c-4.7-2.5-12.3-.6-19.2,4.9-3.2,2.5-4.7,3-9.4,3a20.422,20.422,0,0,0-15.5,6.4c-2,2.1-3.3,2.6-7.6,2.6h-5.1l-1.7-12.8c-.9-7-2-13.8-2.4-15.1-.5-2.1-.3-2.3,1.2-1.7a3.686,3.686,0,0,0,3.6-1c1.1-1,1.9-1.2,1.9-.6a1.126,1.126,0,0,0,1,1.2c.9,0,2.1.9,7.2,5.7,1.6,1.4,1.8,1.3,2.4-1.1a11.032,11.032,0,0,0-.6-5.6c-1.3-3.1-8.2-10-10-10a1,1,0,0,1-1-1c0-.6,1.7-1,3.8-1.1a18.879,18.879,0,0,0,5.5-.8c1.6-.6,1.6-.9-.7-3s-3.2-2.3-8.6-1.8l-6,.5,2.8-3.9c1.5-2.1,3.5-3.9,4.5-3.9.9,0,1.7-.5,1.7-1.1,0-.8-2.1-1-6.7-.7-6.6.5-6.7.5-3.3-.9,5.5-2.1,6-2.5,8.8-7.6,2.3-4.1,2.5-4.9,1.2-5.7-1.9-1.2-9.6-2.7-18.4-3.5-3.7-.4-6.4-1.1-6-1.5.5-.5,7.6-1.3,15.8-1.8,13.2-.8,15.1-1.2,16.5-3,1.8-2.3,11.1-6.6,18.6-8.7C763.3-537.1,764.7-537.2,767.8-536.4ZM553.5-528c1.3.5,1.4.9.5.9a10.629,10.629,0,0,1-3.5-.9c-1.3-.5-1.4-.9-.5-.9A10.629,10.629,0,0,1,553.5-528ZM710-514c4.3,1.5,9.7,5.6,8.7,6.6-.4.4-1.7.2-3-.4-1.2-.6-6.9-2.9-12.7-5.2-8.7-3.4-22.7-10.6-16.6-8.6,1.5.5,1.7.2,1.3-1.3-.4-1.7,1-1.3,9.2,2.9C702.2-517.4,708.1-514.6,710-514Zm3.9,16.7a18.78,18.78,0,0,0-1.9,5.5c0,2.3-.5,2.3-3-.2-3.8-3.8-11.7-3.8-16.2,0l-2.3,2,2.8-.6c1.7-.4,2.7-.2,2.7.5,0,.6.9,1.1,2,1.1s2,.6,2,1.4,1.5,1.9,3.3,2.6l3.2,1.2-6.9,1.7c-9.5,2.5-13.9,7.9-10.7,13,.7,1.1,1.1,1,2-.7.7-1.3,1.7-1.9,2.6-1.6a3.359,3.359,0,0,0,3.1-1c.8-.9,2-1.4,2.5-1a2.071,2.071,0,0,0,2.2-.4,12.019,12.019,0,0,1,3-1.5c1.3-.5,1,.3-1.2,3-4.2,5.1-4.3,10.9-.2,15.5l2.9,3.3-.5-2.9c-.4-2-.2-2.7.5-2.2.8.5,1,.2.6-.8-.3-.9-.2-1.6.4-1.6.5,0,1.3-1.1,1.6-2.5.4-1.4,1.1-2.5,1.6-2.5a.945.945,0,0,0,1-1,16.521,16.521,0,0,1,2.4-4.4c2-3,2.5-3.3,3.1-1.8,1.8,4.8,3.5,16.3,3.5,24.1,0,10.2.1,10.1-10.3,10.1a30.819,30.819,0,0,0-9.4,1.5,19.838,19.838,0,0,1-5.8,1.5c-1.2,0-3.9,1.1-5.9,2.5-3.5,2.4-4.3,2.5-19.4,2.5-27,0-50.9-2.6-51.9-5.7-.3-.6,1-1.9,2.7-2.8,3.5-1.8,23.2-6.5,38-9,11.9-2,20-4.3,20-5.6,0-1.9-6.5-3.7-23.4-6.6-9.3-1.5-17.1-3.3-17.3-3.9s1.6-1.8,3.9-2.6c2.4-.9,7.2-2.6,10.8-3.9l6.5-2.4-5.5-.7c-3-.4-17-1.5-31-2.4-24.8-1.7-35.7-3.2-24-3.4,6.8,0,44.2-2.9,44.6-3.3.2-.2-13.7-.9-30.9-1.7-47.4-2.1-56.7-2.6-51.2-2.8,85.9-3.4,110.6-5.3,142.5-11.1,5.8-1.1,11-2,11.6-2C715.3-501,715.1-499.6,713.9-497.3ZM625-399.5c49.2,3.2,97.1,7,131.5,10.4,12.2,1.2,2.6,1.3-24,.1-51.3-2.3-65.6-3.1-78.5-4.5-55.6-6-78.5-8.7-79-9.2-.3-.3,2.2-.3,5.5,0C583.8-402.3,603.8-400.9,625-399.5Z"/>
      <path id="Trazado_39892" data-name="Trazado 39892" d="M501.5-757.1c-.3.5-2.8,1.7-5.6,2.6-4.7,1.6-5.3,2.2-7.4,7a160.505,160.505,0,0,0-5.5,16.1c-1.7,6-3.3,11.6-3.6,12.4s.6.4,2-.9c3.2-3,3.2-3.3.2,14.8-1.4,8-2.7,17.3-3.1,20.6-.3,3.3-.8,8-1.1,10.5-.6,5.7.5,3.9,4.1-6.5a108.725,108.725,0,0,1,7.1-15.6c8.7-14.9,12-25.2,9.8-30.5a23.087,23.087,0,0,1-1.4-7.8c0-4.5,3.1-15.9,5.6-20.9C503.9-757.7,502.9-759.3,501.5-757.1Z"/>
      <path id="Trazado_39894" data-name="Trazado 39894" d="M443.5-700.6c-5,9.9-7.5,13.1-15.5,19.2-4.9,3.7-7.6,8.1-10.6,16.9-1.3,3.7-1.3,3.8.2,2a59.109,59.109,0,0,0,4.5-7.8c1.6-3.1,3.4-5.7,3.9-5.7,1.3,0,1.3,1.7,0,2.5-.5.3-1.7,3.2-2.6,6.3a43.65,43.65,0,0,1-4.6,10,90.076,90.076,0,0,0-5.3,8.5l-2.4,4,3,4.4c3.4,4.9,4.9,5.4,4.9,1.6,0-2,2.2-4.7,9.5-11.8,5.2-5.1,9.5-9.9,9.5-10.6,0-.8.5-4.6,1-8.4,1-6.8,2.2-11.7,7.4-31,1.4-4.9,2.3-9.1,2.1-9.3C448.4-710,446.1-705.9,443.5-700.6Z"/>
      <path id="Trazado_39896" data-name="Trazado 39896" d="M514-608.2l-2.5,2.3,3.7-1.5c6.5-2.6,7.6-3.4,4.3-3.3A10.558,10.558,0,0,0,514-608.2Z"/>
      <path id="Trazado_39897" data-name="Trazado 39897" d="M479.4-585.5c-1,.8-1.4,1.5-.8,1.5a4.313,4.313,0,0,0,2.4-1.5C482.6-587.4,481.9-587.4,479.4-585.5Z"/>
      <path id="Trazado_39898" data-name="Trazado 39898" d="M464.8-577.4c-1.6.8-2.8,1.7-2.8,2,0,.2.9,0,2-.6,2.7-1.5,4.5-.3,2.8,1.8-.9,1.2-.6,1.1,1-.2,2.5-2.2,2.7-2.7,1-2.4a.762.762,0,0,1-1-1C468.1-579.3,468.2-579.3,464.8-577.4Z"/>
      <path id="Trazado_39899" data-name="Trazado 39899" d="M506-572c-.9.6-1,1-.3,1a2.534,2.534,0,0,0,1.8-1C508.3-573.2,507.9-573.2,506-572Z"/>
      <path id="Trazado_39900" data-name="Trazado 39900" d="M448.5-566.5c-1.6,1.4-2.5,2.5-1.8,2.5a5.077,5.077,0,0,0,2.6-1.5c.8-.8,1.7-1.2,1.9-1,.3.3.5-.2.5-1a11.925,11.925,0,0,0-.1-1.5C451.5-568.9,450.2-567.8,448.5-566.5Z"/>
      <path id="Trazado_39901" data-name="Trazado 39901" d="M466.4-558.8l-1.9,2.3,2.3-1.9c2.1-1.8,2.7-2.6,1.9-2.6A12.161,12.161,0,0,0,466.4-558.8Z"/>
      <path id="Trazado_39902" data-name="Trazado 39902" d="M489.5-558c-.3.6.1.7.9.4,1.8-.7,2.1-1.4.7-1.4A1.9,1.9,0,0,0,489.5-558Z"/>
      <path id="Trazado_39903" data-name="Trazado 39903" d="M419.5-543c-2.2,1-3.6,1.9-3.1,1.9.5.1.2.9-.5,1.8-.8.9.7.2,3.4-1.6a25.785,25.785,0,0,0,4.7-3.6C424-545.1,424.3-545.2,419.5-543Z"/>
      <path id="Trazado_39904" data-name="Trazado 39904" d="M522-543.7a30.709,30.709,0,0,0,4.8,4.3c4.1,3.3,4.3,3.4,1.9.7-1.6-1.7-2.5-3.3-2-3.5.4-.3.2-.3-.6-.1a3.578,3.578,0,0,1-2.7-.8C522.6-543.7,522-544,522-543.7Z"/>
      <path id="Trazado_39905" data-name="Trazado 39905" d="M519-539a6.8,6.8,0,0,0,2.5,1c.6,0,.3-.5-.5-1a6.205,6.205,0,0,0-2.5-1C518-540,518.2-539.5,519-539Z"/>
      <path id="Trazado_39906" data-name="Trazado 39906" d="M525-536.6c0,.2.7.7,1.6,1,.8.3,1.2.2.9-.4C526.9-537,525-537.4,525-536.6Z"/>
    </g>
  </g>
</svg>
