<svg xmlns="http://www.w3.org/2000/svg" width="215.59" height="215.589" viewBox="0 0 215.59 215.589">
  <g id="Grupo_5020" data-name="Grupo 5020" transform="translate(-18146.998 -12277.196)">
    <path id="Trazado_39881" data-name="Trazado 39881" d="M215.588,107.794A107.795,107.795,0,1,1,107.8,0,107.794,107.794,0,0,1,215.588,107.794" transform="translate(18147 12277.196)" fill="rgba(255,255,255,0)"/>
    <path id="Trazado_39882" data-name="Trazado 39882" d="M17.86,134.242l-9.887,4.6A107.781,107.781,0,0,0,210.949,101.5c-2.9-3.5-5.456-9.328-9.384-11.669-2.893-1.725-25.122,3.782-28.734,7.556-8.791-12.019-19.061-.527-22.087-18.768l-9.4-2.122-.1-3.11c-.022-.653-1.982-1.391-2.522-1.912l-4.053-3.92c-.927-.9-4.395.285-6.829.684-.927-9.731-2.839-19.254-9.659-27.057l-10.51-4.506c-9.6,4.5-24.679,17.538-30.218,25.59C75.12,67.43,73.8,71.377,69.53,74.523l-13.8,10.17c-12.371,9.116-2.664,21.418-8.7,35.719-9.349,5.633-19.367,9.267-29.173,13.83" transform="translate(18150.965 12295.438)" fill="#d1d5db"/>
  </g>
</svg>
