<svg xmlns="http://www.w3.org/2000/svg" xmlns:xlink="http://www.w3.org/1999/xlink" width="495" height="266" viewBox="0 0 495 266">
  <defs>
    <clipPath id="clip-path">
      <rect id="Rect치ngulo_1797" data-name="Rect치ngulo 1797" width="310.086" height="106.99" transform="translate(0 0)" fill="none"/>
    </clipPath>
  </defs>
  <g id="Grupo_5030" data-name="Grupo 5030" transform="translate(-17977 -15790)">
    <rect id="Rect치ngulo_1800" data-name="Rect치ngulo 1800" width="495" height="266" transform="translate(17977 15790)" fill="rgba(255,255,255,0)"/>
    <g id="Grupo_5029" data-name="Grupo 5029" transform="translate(18069.457 15900)">
      <g id="Grupo_5025" data-name="Grupo 5025" clip-path="url(#clip-path)">
        <path id="Trazado_39975" data-name="Trazado 39975" d="M128.7,15.278c.9-1.9,5.369-10.55-3.5-14.6-1.2-.4-5.47-1.448-8.7.3-6.5,3.2-7.7,11-2.6,16.5,5,5.4,11.5,4.4,14.8-2.2"/>
        <path id="Trazado_39976" data-name="Trazado 39976" d="M77.44,44.639c2.154.709,4.677.208,8.237-5.345,2.076-3.193,3.97-6.785,7.354-6.4,3.683.356,6.424.5,8.516.491-2.988,7.961-5.986,18.04-6.047,21.594,0,4.3,0,4.3,3.3,3.8,1.7-.3,7.6-.8,13-1.2l9.7-.6v-3.1c0-1.8,2.03-5.293,2.53-7.193,1-3.4,4.418-24.081-11.232-25.507-.973-.089-14.722.182-19.393.45-9.847.485-10.353.824-15.466,13.334-1.072,2.8-4.634,8.316-.5,9.677"/>
        <path id="Trazado_39977" data-name="Trazado 39977" d="M310,38.178c-.7-1.1-.7-1.1-9,.2-3.3.5-16.8,2.7-30,4.8-33.1,5.4-35.3,5.7-109,13-20.2,2-73.3,6.4-92.2,7.6-8.1.5-10.3,1-10.3,2.2,0,.8,1.8,5.5,4,10.4,2.2,5,4,9.2,4,9.3s-11.1.5-24.7.9c-13.7.3-28.8,1-33.8,1.3l-9,.8,7,.7c3.9.4,19.6,1,34.9,1.3,15.4.3,28.2.8,28.5,1,.2.3,5.4.5,11.4.5,6.1,0,10.8.2,10.5.5-.5.6-49.7,4.4-58.8,4.6l-6.5.1,6,1.1c3.4.6,19,1.1,36,1.1,26.8-.1,32.2-.4,50.5-2.8,64.3-8.4,99.3-11.6,130.2-11.6h22.8l11.8-11.8c6.6-6.4,13.7-14.2,15.9-17.2,5.7-7.9,10.6-16.8,9.8-18m-31.8,18.1c-5.6,3.3-51,10.6-85.2,13.8-59.5,5.6-122.7,8.3-112.5,4.8.8-.3,12-1,24.7-1.6,62.4-3,131.2-9.9,159.8-16,5-1,10.4-1.9,12-2,2.6,0,2.7.1,1.2,1"/>
        <path id="Trazado_39978" data-name="Trazado 39978" d="M75.8,60.578c4.4-.9,1.8-7.3,1.8-7.3l-1.6-3.1c-1.9-3.7-3.9-4.6-13.2-6-8.4-1.2-15-1.2-17.9,0-1.7.7-2.2,2-2.7,7.1-.4,3.4-.7,7.3-.7,8.7v2.4l15.8-.7c8.6-.3,17-.9,18.5-1.1"/>
        <path id="Trazado_39979" data-name="Trazado 39979" d="M44.3,68.478c2.3.5,3.5,1.9,6.6,8.1,3.1,6.5,4.1,7.6,6.2,7.6s2.4-.4,1.9-2.1a45.865,45.865,0,0,1-.9-9c-.2-3.9-.7-7.3-1.2-7.7s-4.2-.6-8.1-.4c-5.3.2-7.3.7-7.3,1.6,0,.8,1.3,1.6,2.8,1.9"/>
        <path id="Trazado_39980" data-name="Trazado 39980" d="M276.5,94.478c-10.1-2.2-14.4-2.5-34.5-2.8-12.6-.1-25-.1-27.5.1-9.3.8-26.8,2.5-34,3.4-14.9,1.9-77.7,10-84.5,10.9-15.8,2.2,31.2.1,66-2.9,19.8-1.7,43.9-3.4,53.5-3.8,16.8-.7,51.8-.1,74,1.1l10.5.6-6-2c-3.3-1.2-11.2-3.2-17.5-4.6"/>
      </g>
    </g>
  </g>
</svg>
