<svg xmlns="http://www.w3.org/2000/svg" xmlns:xlink="http://www.w3.org/1999/xlink" width="435" height="435" viewBox="0 0 435 435">
  <defs>
    <clipPath id="clip-path">
      <circle id="Elipse_561" data-name="Elipse 561" cx="217.5" cy="217.5" r="217.5" transform="translate(20631 12078)" fill="#fff"/>
    </clipPath>
  </defs>
  <g id="Enmascarar_grupo_228" data-name="Enmascarar grupo 228" transform="translate(-20631 -12078)" clip-path="url(#clip-path)">
    <g id="ChatGPT-Image-5-ene-2026_-11_09_24-p.m." transform="translate(20330.658 12906.592)">
      <path id="Trazado_39907" data-name="Trazado 39907" d="M490.5-904.9c-75.2,5.5-150.2,35.9-209,84.8-20.9,17.3-47.4,45.9-63.1,68.1-44.7,63-67.1,140.8-62.5,217.2,4.4,72,26.3,132,69.2,189.4,55,73.6,139.2,124.8,230.9,140.3,22.2,3.8,33,4.6,62,4.5,35.7,0,56-2.3,86.9-9.9a364.127,364.127,0,0,0,170.5-95.3c56.8-55.9,92.9-126.9,102.1-201.2,6.1-49.1,2.7-93.6-10.4-140-10.7-37.7-28.2-73.3-53-107.9-37.9-52.8-96.4-98.4-158.5-123.5C602.9-899.7,545.5-908.9,490.5-904.9Zm60,11.5c107.2,10,205.7,68.7,263.8,157.4,27.4,42,44.5,86.2,51.9,134,1.9,12.5,2.2,18.7,2.2,45.5.1,17-.3,34-.7,37.7l-.8,6.6-3.7.7a32.778,32.778,0,0,0-7.4,2.6c-2.8,1.4-5.8,1.9-12.5,1.9s-9.8.5-12.5,1.9l-3.7,1.8-.5-2.6c-.3-1.4-.8-4.4-1.2-6.6-.8-5.1-4.9-21.6-8-32.4-2.8-9.8-2.8-9.7-1-8.2a3.2,3.2,0,0,0,2.8.6c1-.4,2.1.7,3.4,3.2,2.5,5.1,2.4,4.9,3.3,3.5.5-.9,1.7,0,4,2.8,1.7,2.2,3.9,4,4.7,4s2,1.1,2.6,2.5c.7,1.7,1.4,2.1,1.9,1.4,1.2-1.9,2.9,0,2.9,3.4v3.1l2.5-3.4c5-6.8,2.3-16.5-6.8-24.5a32.328,32.328,0,0,0-9.7-5.9l-4.5-1.3,4.1-1.1c2.3-.7,4.9-.9,5.8-.6,1.1.4,1.6.1,1.6-1,0-2.1.8-2,4.8.4,3.2,2,3.2,2,3.2,0,0-1.7.3-1.9,1.9-1,2.7,1.4,3.1,1.3,3.1-.7,0-1.3.5-1.2,2.6.8l2.7,2.4-.5-5.3c-.6-6.3-3.1-9.4-9.5-11.8-5.2-2-15.3-1.5-20.2,1-4.6,2.4-4.9,1.4-.7-2.7,3-3,3.2-3.6,1.8-4.2-1.3-.5-.9-1,2.1-2.2,3.7-1.5,4.5-2.7,2.7-3.8-1.5-.9-.2-2.5,2.2-2.5,1.4,0,1.8-.5,1.4-1.5-.5-1.4.1-1.7,5.9-2.8,3.5-.6-5.5-2.7-11.8-2.7-7,0-12.3,2.4-16.6,7.7a18.7,18.7,0,0,0-3.7,7.3,34.555,34.555,0,0,1-1.1,4.3c-.3.4-2.8-1.4-5.7-4.1-7.6-6.9-16.1-9-22.9-5.6-6.2,3.2-9.2,7.2-3.8,5.1,3.3-1.2,7.5-.2,5.1,1.3-1.2.7-1.1,1,.5,1.5,1.1.4,2.8,1.1,3.8,1.6a3.5,3.5,0,0,0,2.7.4c.6-.4,1-.2,1,.4a2.715,2.715,0,0,1-1.2,1.7c-.9.6-.5,1,1.2,1.4,1.4.3,2.5,1.2,2.5,2,0,.9,1.1,1.6,2.6,1.8,1.9.2,2.8,1,3.1,2.6.5,2.3.3,2.4-8.6,2.8-9.9.5-14.6,2.2-20.3,7.5a16.81,16.81,0,0,0-4.7,14.2c.6,3.1,2.4,4.4,2.4,1.7,0-2.1,2.7-4,3.3-2.4.6,1.3.8,1.1,3.8-3.2.6-.8,1.2-1.1,1.5-.5,1.6,3.6,2.4,4,3.9,2.1a19.88,19.88,0,0,0,1.9-3c.3-.7.8-.6,1.4.3.9,1.3,1.3,1.3,2.8,0a4.737,4.737,0,0,1,3.5-1.1,2.49,2.49,0,0,0,2.4-.8c.3-.5,2.3-1,4.3-1,3.2.1,3.5.2,1.7,1.2-3.7,2-10.6,9.2-12.8,13.3-2.9,5.6-3,16.2-.2,20.1a24.057,24.057,0,0,0,4.3,4.2c2.3,1.5,2.3,1.5,1.6-1.4-1.1-4.6-1-4.9.9-4.6,1.3.2,1.7-.4,1.7-2.8,0-1.6.5-3,1-3,.6,0,1-.7,1-1.6,0-1.1.6-1.4,2.1-.9,1.9.6,2.1.4,1.5-1.9-.5-1.9-.2-2.8.9-3.2a3.534,3.534,0,0,0,1.5-3c0-2.1.3-2.4,2.6-1.8,2.5.7,2.6.5,2.2-2.6-.3-2.2,0-3.4.9-3.7a5.264,5.264,0,0,0,2.3-2.7c.7-1.9,1-1.7,2.5,1.9,3.7,8.6,10.5,39.3,10.5,47.5,0,3-.8,4.6-4.3,8.4-4.1,4.3-4.7,4.6-9.4,4.6-8.1,0-12.8,2.2-26.3,12.1-3.8,2.8-14,5.9-19.3,5.9a10.775,10.775,0,0,0-5.5,1.6c-2.8,2-2.9,1.7-3.6-11.6a116.289,116.289,0,0,0-4.1-26.3c-.7-2.6-.6-2.8,1.9-2.1,1.9.4,2.7.2,3.2-1,.8-2.1,1.4-2,4.8.9a19.635,19.635,0,0,0,4.7,3,2.641,2.641,0,0,1,1.9,2.1c0,2.8,1.9,1.3,2.5-2a9.485,9.485,0,0,0-.9-6.4c-1.7-3.3-8.3-9.2-10.3-9.2-.7,0-1.3-.4-1.3-.8,0-.5,1.7-.9,3.7-1s3.9-.6,4.3-1.2a2.271,2.271,0,0,1,2.6-.4c1.3.4.9-.4-1.4-2.5-3.7-3.5-8.4-4.1-13.2-1.6-1.7.9-3,1.4-3,1.1,0-1.5,3.3-6.2,6.1-8.8l3.4-3-6,.7c-3.3.3-7,1.3-8.3,2.1-2.7,1.8-6.2,7.2-6.2,9.6,0,2.3-1.3,2.3-3.5-.2-2.7-3-7.9-3.6-12.6-1.5-4.8,2.2-7.7,5.2-4.1,4.3,1.5-.4,2.2-.2,2.2.8,0,.8,1,1.4,2.4,1.4,1.3,0,2.6.6,2.9,1.4.3.7,2,1.6,3.9,2l3.3.8-5.4,1.4c-10.2,2.7-15.1,7.7-13.5,13.8.9,3.6,2.1,4.1,2.8,1,.5-1.8,1.1-2.4,2.3-2,.9.4,2.4-.1,3.5-1,1-1,2.1-1.4,2.4-1.1.4.3,2-.1,3.6-.9,1.7-.9,3.2-1.3,3.6-1,.3.3,0,.6-.6.6-2.3,0-5.2,6.3-5.2,11.2,0,3.9.6,5.4,3,8l2.9,3.3.1-2.8c0-1.5.5-2.7,1-2.7.6,0,1-.7,1-1.5s.5-1.5,1-1.5c.6,0,1-1.1,1-2.4s.3-2.6.8-2.8a17.362,17.362,0,0,0,2.8-4.2c1.1-2.1,2.4-3.9,3-3.9,2.2-.2,4.6,13,5.1,27.8l.5,15-4.4,2.6a24.739,24.739,0,0,1-8.1,3.3,17.757,17.757,0,0,0-7,3.5c-5.7,4.9-8.1,6.1-12.2,6.1a13.636,13.636,0,0,0-7,2,13.834,13.834,0,0,1-6.7,2c-2,0-7.2,1.3-11.5,2.9a57.059,57.059,0,0,1-16.8,3.5c-4.9.3-15.7,1.3-24,2.1-8.2.8-16.8,1.4-19,1.4-3.5-.1-2.9-.4,5.5-3,5.2-1.6,16.3-5.2,24.5-7.9,8.3-2.7,20.8-6.5,27.9-8.5,24.8-6.9,24.3-8.9-2.9-12-19-2.2-27.4-3.5-28-4.5-.6-.9,6-2.5,17.3-4.2,3.9-.6,7.2-1.4,7.2-1.8s-8.7-1-19.2-1.4c-10.6-.3-26.3-.9-34.8-1.3l-15.5-.8,26.6-.6c14.6-.3,29.2-1,32.5-1.5,5.6-.8,5.3-.9-7.1-1.5-7.1-.4-23.8-.8-37-.9s-22.9-.5-21.5-.9,12-1.1,23.5-1.5c34.8-1.2,64.4-3.9,76-7,4.9-1.3,4.9-1.4,2.1-2.1-1.6-.4-10.4-.5-19.5-.1-9.1.3-36.2,1.3-60.1,2.1-93.4,3.1-110.3,3.8-129.9,5.6-12.4,1.2-17.6,2.5-15.1,3.8,1.9,1.1,21.1,3.6,42,5.6,43.9,4.3,96.8,12.6,107.3,17,4.3,1.8,6.9,4.8,6.1,6.9-1.7,4.5-18.6,9.3-54.9,15.6-49.6,8.6-58.2,10.2-65,12-14,3.6-17.7,6.3-13.9,10,4.5,4.5,34.7,9.5,84.4,13.9,12.4,1.2,35,3.2,50.3,4.6,24.9,2.2,32.5,2.5,75,2.5,55.3,0,96.8,1.1,82.2,2.1-4.9.4-22.4.7-38.9.8-59.5.2-200.8,4.2-199.4,5.7.2.1,9.5,1,20.8,1.8,11.3.9,29.3,2.3,40,3.1,33.1,2.6,68.2,4.5,99.4,5.5,16.4.5,30.1,1.1,30.4,1.4.3.4-1.2.6-3.4.6-2.1,0-23.5.9-47.4,2s-62.2,2.6-85,3.4c-45.2,1.7-63.3,2.6-62.7,3.2.7.8,43.6,5.3,73.2,7.8,30,2.6,96.6,6.4,116,6.7l9,.2-8.5.7c-7.9.8-30,1.8-87.5,4-12.6.5-47.5,1.4-77.5,2s-59,1.5-64.5,1.9l-10,.7,8,1.2c26,4,102.1,10.6,145.8,12.7,7.5.4,13.7,1,13.7,1.4,0,1-20.7,2.8-60,5.1-18.4,1.1-40,2.4-48,3-8,.5-25.2,1.2-38.3,1.6s-23.4,1-23,1.5c2,1.9,72.3,7.8,129.8,10.9,11,.6,26.3,1.5,34,2,7.7.6,18.1,1,23,1.1,15.8.1,6.4,1.6-24,3.9-48.4,3.6-68.7,4.8-99,5.9-15.9.6-31,1.4-33.5,1.8l-4.5.6,3.5.8c11.8,2.7,50.4,7.3,83.8,10,8.4.7,14.9,1.6,14.5,2-.9.8-43.6,4.4-70.3,5.9-16.6.9-19.2.8-51.5-2.5-18.7-1.9-41.6-4.5-51-5.9-9.3-1.4-20.4-2.8-24.5-3.2-9.5-.8-12.6-2.3-5-2.4,31-.1,122.7-11.7,119.3-15-.4-.5-12.5-1.6-26.8-2.4-35.4-2.2-55.1-4-96-9.2-23-2.9-30.5-4.2-30.5-5.4s3.4-1.8,26.5-4c25.6-2.5,61.5-7.6,62.7-8.8,1.5-1.5-3-2-40.7-4.7-45.1-3.3-72.8-5.7-105-9-7.7-.8-15.1-1.5-16.4-1.5s-2.2-.2-1.9-.5,16.9-1,36.8-1.5c20-.6,45.6-1.7,56.9-2.5,35.1-2.5,69.6-5.7,70.4-6.5,1.1-.9-5.9-1.5-54.3-4.5-46.7-2.9-53.8-3.5-51.9-4.5.8-.4,11.1-1.1,22.9-1.4,21.5-.7,82.4-4,95.3-5.2,3.7-.4,6.5-.9,6.2-1.2s-50.8-1-112.3-1.4c-61.4-.5-118-1.2-125.7-1.6l-14-.7,21.5-.8c11.8-.4,67-1.2,122.5-1.8,55.6-.5,102.6-1.4,104.5-1.9,2.3-.5-4.2-.8-18.5-.9-24-.2-43-.9-101.5-4.1-40.7-2.2-51.4-2.9-50.8-3.5.2-.2,12.7-.9,27.8-1.5,44.3-1.7,113.4-6.1,114.6-7.2.3-.3-7.7-.9-17.8-1.2-161-5.4-201.3-6.8-201.7-7.2-.2-.2.4-.4,1.5-.4,8.5,0,76.7-2.2,95.4-3,36.1-1.6,79.9-5.6,81.7-7.4.4-.4-12-1.2-33.9-2.2-7.6-.4-13.8-1-13.8-1.4,0-.9,11.1-4,24.6-7,14.8-3.2,61-10.7,96.2-15.5,48.2-6.6,58.2-8.7,59-12.7,1-5.1-22.5-9.2-79.8-14.3-16.2-1.4-36.9-3.2-46-4s-30-2.7-46.5-4.1-34.9-2.9-41-3.4c-32.1-2.8-20.7.4,42,11.4,11,2,28.6,4.5,39,5.6,10.5,1.1,21.7,2.4,25,2.9,9.5,1.3,2.2,1.3-36-.4-18.7-.8-36-1.4-38.5-1.4-7.1.2,36.7,5.6,55.5,6.9,36.4,2.5,35.3,2.7-17,2.9-30.5.2-51,.6-49.5,1.1,2.8,1,43,5,49.7,5,2.3,0,4.5.4,4.8,1,.8,1.3,2.7,1.3-37.1-.5-31-1.5-34-1.8-37.8-3.8-3.2-1.7-5.9-2.2-12.6-2.2-5.9-.1-9.5-.6-11.7-1.8a15.94,15.94,0,0,0-5.6-1.7c-1.4,0-4.8-1.6-7.7-3.5s-5.7-3.5-6.3-3.5c-.7,0-.8-3.9-.4-12.3.7-12.6,3.5-29.7,4.8-29.7.4,0,1.3,1.6,2,3.5s1.6,3.5,2,3.5,1,.9,1.4,2c.3,1.1,1.2,1.9,1.8,1.7.7-.1,1.1.4.9,1.2-.5,2.3.9,5.1,2.5,5.1,1,0,1.4.6,1,2-.8,3.3.8,2.3,3.1-1.9A17.543,17.543,0,0,0,318-497c0-4-2.6-9.6-5.4-11.5-1.1-.8-1.6-1.5-1-1.5a8.308,8.308,0,0,1,2.9,1.3,27.192,27.192,0,0,0,6.8,2.7c3.3.9,5.2,2.1,6.1,3.8l1.3,2.5.7-3.7c1.4-7.3-5.2-13.6-14.1-13.6-2.4,0-4.3-.3-4.3-.8,0-.4,2-1.6,4.5-2.7s4.5-2.6,4.5-3.3.5-1,1-.7c.6.3,1-.1,1-1.1,0-1.1.6-1.5,2-1.1,4,1,1.9-1.2-2.7-2.7-6.9-2.4-9.7-2-13.8,1.5-1.9,1.7-3.5,2.6-3.5,1.9,0-2.8-3.5-8.2-6.1-9.5a19.982,19.982,0,0,0-8.1-1.4c-4.7,0-5,.2-2.5,1.1,1.5.5,2.7,1.5,2.7,2.1a5.631,5.631,0,0,0,1.7,2.9c1.8,2.1,1.2,2.2-3.7.8-4.3-1.2-9.9.2-13.7,3.4l-2.8,2.4,2.9-.5c2-.4,2.7-.2,2.2.6-.5.7.5,1.1,3,1.1,4.3,0,11.4,2,11.4,3.2,0,.4-.9.8-2.1.8-3.6,0-9,3.2-11,6.4a15.817,15.817,0,0,0-1.9,7.3c0,3.6.3,4.2,2,4,1.1-.1,2-.7,2-1.4a1.324,1.324,0,0,1,1.3-1.3c.8,0,2.4-1.1,3.7-2.5,1.5-1.6,2.7-2.2,3.3-1.6.5.5,2.5.7,4.4.4,3.2-.6,3.4-.4,2.5,1.3-1.8,3.4-4.2,17.1-4.8,27.7l-.7,10.2-5.1-.4c-3-.2-6.3-1.1-8-2.4-3.4-2.4-12.3-4.7-18.4-4.7-2.9,0-6-1-9.9-3.2-5.4-3.1-5.7-3.1-11.2-2-8.3,1.7-8.5,1.7-13.5-3.6-4.4-4.5-4.6-4.9-4-9.2,1-8,5.5-30.3,7.6-37.5,3.1-10.8,2.8-10.3,3.9-8.3a3.6,3.6,0,0,0,2.4,1.8c1,0,1.5,1.1,1.5,3.6,0,3.1.3,3.5,2,2.9,1.4-.5,2-.2,2,1a2.534,2.534,0,0,0,1.5,2.1c.9.4,1.5,1.9,1.5,4,0,2.6.3,3.2,1.5,2.8.9-.4,1.5,0,1.5.9a2.675,2.675,0,0,0,1.5,2.1c1.1.4,1.4,1.3.9,3.3-.5,2.3-.4,2.6.7,1.5a5.157,5.157,0,0,1,2.1-1.2c1.3,0,.9,5.5-.4,6.8-.7.7-.8,1.2-.2,1.2,1.6,0,6.2-5.2,7.3-8.3,3.2-8.4-1.7-20.5-10.9-27l-5.5-3.9,6,.5c4,.4,6.4,1.2,7.2,2.3,1.2,1.7,1.4,1.7,2.7-.1s1.4-1.7,3.1.8c2.1,3.3,3.1,3.4,4.1.5l.6-2.1L266-542c1.3,1.7,1.9,2,2.3.9.4-1,1.2-.6,3.1,1.6l2.6,3v-4.9c0-12.8-11.6-20.2-28.7-18.2l-5.6.7,1.5-2.3a11.18,11.18,0,0,1,3.6-3.3c1.2-.5,2.1-1.6,1.9-2.5-.1-.9,1-1.9,3.1-2.5,3-.9,4.4-2.5,2.1-2.5-2.1,0,.2-1.9,3.1-2.5,2.1-.5,2.7-1.1,2.3-2.2-.5-1.4,0-1.5,3.8-1l4.4.6-3.1-2.9c-5.5-4.9-16.8-5.2-23.6-.7a28.215,28.215,0,0,0-5.8,6.1c-2.3,3.6-2.5,3.7-3.1,1.4A22.232,22.232,0,0,0,202-589l-2.5.7,2.5,1.1a27.2,27.2,0,0,1,5,3.1c2,1.7,2.2,2.3,1.1,3s-.8,1.2,1.3,2.6c2.4,1.6,2.5,1.9.9,3-1.5,1.2-1.5,1.3.3,1.9a10.3,10.3,0,0,1,4.1,3.4l2,2.8-6-2c-5.2-1.7-6.8-1.8-12.4-.9-3.5.6-7.5,1.9-8.9,2.8A14.98,14.98,0,0,0,183-555l.1,4.5,2-2.8c2.5-3.3,3.9-3.5,3.9-.5,0,2.1.1,2.1,3-.7l3-2.9v2.8c0,1.5.3,2.6.8,2.4.4-.2,2-1,3.5-1.8,2.3-1.1,3-1.2,3.7-.1.4.8,1.2,1.1,1.6.9.5-.3,2.5,0,4.4.7l3.5,1.2-3.7,1.1c-5.1,1.4-9.2,4.5-13.8,10.4-5.2,6.5-6.6,11.5-4.6,16.3,1.5,3.4,3.8,6.5,5,6.5.3,0,.6-1.3.6-2.8,0-3.7,1-4.6,2.6-2.4,1.3,1.6,1.3,1.6,1.4-.1,0-.9.4-1.7,1-1.7.5,0,1.6-1.4,2.5-3,.9-1.7,2.2-3,3-3a1.538,1.538,0,0,0,1.5-1.5c0-.9.6-1.2,1.5-.9,1,.4,1.8-.3,2.5-2,.6-1.7,1.4-2.4,2.5-2,.9.4,1.5.1,1.5-.9,0-.8,1.1-2.2,2.5-3.1,3.3-2.2,3.3-1.7-.9,14.6-1.9,7.3-4.2,17.8-5.2,23.3-.9,5.5-1.8,10.1-1.9,10.3-.2.2-1.4-.3-2.7-1.1-3-2-6.7-2.3-14.8-1.3-5.9.7-7,.5-10.5-1.5a24.427,24.427,0,0,0-7.9-2.9l-4-.5-1.3-8c-2.3-14.9-3.6-50.9-2.3-67.2,3.6-48.1,13.6-85.6,33.5-125.8,21-42.4,48-77.4,82.7-107.2,61.5-52.8,133.6-82,214.8-87.2C513.8-895.9,528.3-895.5,550.5-893.4Zm57.2,412a2.026,2.026,0,0,1-1.9.1c-.8-.3-.5-.6.6-.6C607.5-482,608.1-481.7,607.7-481.4Zm-5.9,57.1a30.031,30.031,0,0,1-6,0c-1.8-.2-.6-.4,2.7-.4S603.3-424.5,601.8-424.3ZM494.4-265.6c-.6,1.7.2,2,11.6,4.1,7.4,1.4,48.3,5.5,54.9,5.5,1.5,0,2.1.4,1.5.9-.5.5-7.6,1.7-15.9,2.7-11.7,1.5-21.6,1.9-45.5,1.8-30.2,0-30.8,0-59.5-4.1-15.9-2.3-33.7-4.7-39.5-5.3-20.9-2.4-21.3-2.8-2.9-2.9,19.7-.1,64.5-1.8,78.9-3C493.5-267.2,495-267.2,494.4-265.6Z"/>
      <path id="Trazado_39910" data-name="Trazado 39910" d="M548-749.8a68.908,68.908,0,0,1-16,2.3c-12.5.3-29.2,3.4-36.6,6.7-3.8,1.6-5.7,1.8-11.7,1.3-6.8-.6-7.9-.5-16.6,2.9l-9.3,3.7-12.2-1.2c-10.2-1-12.6-1-14.8.2-1.5.8-6.7,6.2-11.6,12.2-7,8.3-9.6,12.3-11.8,18-4.5,12-21.8,45.1-26.1,49.9a20.217,20.217,0,0,1-6.2,3.3,23.562,23.562,0,0,0-8.7,5.6c-2.1,2.3-7.9,7-12.8,10.5-7.8,5.6-9.5,6.4-13.5,6.4-6.8.1-11.7,2.8-20.6,11.6-10.4,10.4-15.8,14.6-23.2,18.2-11.7,5.7-19.1,12.4-10.1,9.3,4.9-1.7,5.7-1.1,1.3.9-2.2,1-3.2,1.9-2.3,1.9a10.075,10.075,0,0,0,4.3-1.1c1.4-.6,2.8-.9,3.1-.5.6.6-3.3,7.4-6.8,11.9-3.1,3.9-1.8,4.4,3.8,1.4,5.9-3.1,6.8-3.2,5.4-.6-.6,1.1-4.3,3.6-8.2,5.6-4.9,2.5-6.7,3.9-6,4.6s5.1-.1,14.4-2.6c7.3-2.1,15.8-4.4,18.8-5.2,11.9-3.3,80.1-27.4,86.2-30.5a161.816,161.816,0,0,0,37-25.1A77.971,77.971,0,0,1,465-643.5c5-1.6,19.8-11.5,28.5-19.2,17.8-15.6,34.5-26.3,45-28.9l3-.7-2.7,2.6c-1.6,1.4-2.8,3-2.8,3.6,0,1.1-5.5,5.2-7.4,5.5-1.8.2-7.3,4.5-5.9,4.6a2.534,2.534,0,0,0,1.8-1,2.062,2.062,0,0,1,1.7-1c.6,0-1.6,2.5-5,5.5-8.1,7.4-9.9,12.5-3.2,9,4-2.1,4.8-1.3,2.4,2.2-1,1.5-1.7,3.3-1.6,4,.3,1.4-3.6,4.3-5.8,4.3-2.4.1-5.1,2.9-9.7,10a68.824,68.824,0,0,1-8.4,10.5l-4.1,4,1.6-3.2a57.185,57.185,0,0,1,5.6-7.8c2.8-3.3,4-5.5,4-7.8v-3.1l-4.7,4.6c-5.1,4.8-22,17.3-26.2,19.2a17.724,17.724,0,0,0-4.6,3.1c-9.2,8.6-17.3,14.5-19.9,14.5-2.3,0-16.4,5.6-18,7.1-1.2,1.1,2.8,1.1,10.4,0,9.4-1.4,8.9-1.1-8.5,5.6-6.3,2.4-11.1,4.9-13.1,6.9-4.7,4.7-13,10.2-16.6,10.9a44.877,44.877,0,0,0-8.7,3.6c-5.5,2.9-8.7,3.7-7.6,1.9,1-1.5-.3-1.3-11.1,2.4-9.5,3.2-20.6,8.3-21.2,9.8-.5,1-7.2,3.1-7.9,2.5-.2-.3,1.9-1.9,4.9-3.6,6.1-3.5,6-3.7-.6-1.5-2.6.9-5,1.4-5.3,1-.7-.7,6.1-3.7,19.7-8.6,20.6-7.5,43.2-18.3,46.6-22.2,1.3-1.4,1.4-1.9.4-1.3-.9.5-.7-.1.5-1.4l2-2.3-4,1.7a78.1,78.1,0,0,1-8.1,2.9,17.538,17.538,0,0,0-6,3.2,17.133,17.133,0,0,1-5.9,3.1c-2.2.6-6.7,1.9-10,2.8-8.5,2.3-22.8,7.6-24,8.7-.7.6-.1.9,1.5.8,4.9-.4,4.4.2-2,2.5-3.6,1.2-10,3.6-14.2,5.3-4.3,1.6-7.8,2.8-7.8,2.6,0-.3-1.3.2-2.9,1-1.6.9-3.1,1.2-3.5.9-.3-.4-.6-.1-.6.6s-.4,1-.9.7a.828.828,0,0,0-1.3.4c-.2.6-1.6,1.3-3.2,1.6a17.137,17.137,0,0,0-4.5,1.4c-2.7,1.6,4.5,1.2,8.4-.4,1.9-.8,3.5-1.1,3.5-.6s-.9,1.2-2,1.5c-3,.9-2.4,2.5,1.1,3.2,2.3.4,2.7.8,1.7,1.5q-1.2.9,2.7.3c6.4-1,17.7-2.5,22-2.9a41.147,41.147,0,0,0,6-1.1c1.9-.6,1.9-.6.3.8-1,.8-6.1,3.1-11.4,5.2-6.7,2.7-9.2,4.1-8.5,4.8,1.2,1.2,28.7-7.6,37.1-11.8a125.239,125.239,0,0,1,13-5c10-3.3,30.4-11.6,37.5-15.3,4.3-2.3,22.2-12.8,38.8-22.9a100,100,0,0,0,12.7-9.8c4.1-3.7,9.5-7.7,12-8.9a45.94,45.94,0,0,0,7.7-4.4c4.1-2.9,9-10.1,8.6-12.4-.5-1.9,5.3-8.8,7.4-8.8,1.2,0,1,.7-.7,3.5-2.6,4.3-1.4,4.5,2.6.5,1.6-1.6,3.7-3,4.7-3,4.4,0-4.8,10.6-11.5,13.4-2.1.8-3.8,2-3.8,2.5,0,1.4,1.7,1.4,2.5.1,1-1.7,2.5-1.1,2.5,1,0,1.4.7,2,2.1,2,2.7,0,6.1,1.9,5.4,3-.3.5.3,1.5,1.3,2.2a11.5,11.5,0,0,1,2.7,2.7c.6,1.1.3,1.3-1.8.8-1.4-.4-3.2-1-4.1-1.3-1.2-.5-1.6-.1-1.4,1.7.3,2.2-.1,2.4-3.7,2.4a17.161,17.161,0,0,1-7-1.6c-3.6-1.8-5.5-1.5-5.5,1.1,0,2.1-1.6,3.6-2.2,2-.5-1.5-8.1,2.4-12.6,6.4-3.8,3.5-6,4.7-4.7,2.6,1.4-2.3-1.3-.6-5.8,3.5-2.8,2.6-4.5,5-4.1,5.7.4.6.3.8-.4.4-.6-.3-5.7,2.1-11.4,5.5-5.7,3.3-13.3,7.4-17,9.2-6.8,3.1-9.1,5.3-4.3,4.1,2-.5,2.7-.2,3.3,1.7l.9,2.3,1.2-2.2c.7-1.3,2.8-2.6,5.4-3.3,2.3-.6,7.8-3.3,12.2-6s10.1-5.9,12.7-7.1c2.6-1.3,4.6-2.8,4.4-3.4-.4-1.1,14.3-11.4,16.2-11.4a1.993,1.993,0,0,1,1.5,1.2c.3,1,1.5.7,4.4-.9,3.3-1.9,5-2.2,8.7-1.7,3.6.5,4.7.3,5.1-.9a2.305,2.305,0,0,1,2.8-1c1.9.4,2,.3.5-.6a7.049,7.049,0,0,0-3.9-.9,2.451,2.451,0,0,1-2.7-1.1c-.3-.9.1-1.1,1.6-.7a2.437,2.437,0,0,0,2.7-.4c.4-.7,1.2-.7,2.5,0a20.942,20.942,0,0,0,6.9,1c5.4,0,16,2.4,20.4,4.6,3.1,1.6,3.7,3.9.8,2.9-1.1-.3-4.4-1-7.4-1.5a51.132,51.132,0,0,1-9.2-2.4c-7.4-3.1-6.7-.7,1.1,3.9,4.8,2.8,4.9,5,.3,4.3-3.4-.5-4,1.6-1.1,3.9,1.5,1.2,1.2,1.3-2.3.7a41.706,41.706,0,0,1-7-1.9,29.8,29.8,0,0,0-7.4-1.3c-3.5-.2-4.2.1-3.7,1.3.3.8.1,1.5-.4,1.5-.6,0-3.1,1.6-5.7,3.5-13.2,9.6-14.1,10.5-10.5,10.5,1.1,0,.5.8-1.8,2.1a26.107,26.107,0,0,0-4.5,3.5c-.5.8-2.8,1.6-5,1.8a55.288,55.288,0,0,0-7.5,1.5c-3.8,1.2-9,.6-9-1.1,0-.6-.8-.4-1.8.5a5.631,5.631,0,0,1-2.9,1.7c-.6,0-2.6,1.2-4.6,2.7a45.108,45.108,0,0,1-5.2,3.8c-1.4.8-.8,1,2.6.8l4.4-.3-3,1.5c-3.6,1.7-7.2,1.9-7.7.4-.2-.7-1.7,0-3.5,1.5-1.7,1.4-3.7,2.6-4.5,2.6a41.655,41.655,0,0,0-6.6,1.9,58.514,58.514,0,0,1-9.4,2.6,91.928,91.928,0,0,0-10.6,2.7c-3.5,1.1-6.7,1.7-7,1.4s.1-1.7.8-3.1c1.9-3.5.2-4.5-2.3-1.3-1.2,1.4-5.3,4-9.1,5.7-5.6,2.5-8.2,3.1-14,3.1-7.9,0-7.6-1.9.4-2.1,4.1-.1,4.2-.2,1.7-.9-3.8-1.1-12.8.4-13.8,2.3a7.569,7.569,0,0,1-3.9,2.2c-4.7,1-2.5,2.5,3.6,2.5,3.2,0,5.3.4,4.9.9-.5,1-10.9,2.7-13.3,2.2-1.5-.2-14.2,3.8-14.2,4.5,0,.3,1.7.2,3.8-.1l3.7-.5-3.5,1.6a28.805,28.805,0,0,1-8.5,1.9c-5.5.3-8.5,1.2-8.5,2.6,0,.5,1.5.9,3.4.9s3.6.6,3.9,1.2c.3,1,1.2.9,3.5-.5a14.271,14.271,0,0,1,5.7-1.7,6.8,6.8,0,0,0,4.1-1.5A6.093,6.093,0,0,1,354-530c1,0,7-1.8,13.4-4s12.4-4,13.3-4c1,0,5.6-1.2,10.2-2.5,8.9-2.6,11.1-2.7,6.4-.1-4.4,2.4-1.6,1.9,7.7-1.4,9.5-3.4,10.7-3.6,9.1-1.7-1.8,2.2,4.5.8,6.5-1.4a5.85,5.85,0,0,1,3.5-1.9,2.5,2.5,0,0,0,2.1-1c.5-1.6,14.7-7.1,19.8-7.7a27.128,27.128,0,0,1,8.6.6c3.4.9,4.3,1.7,4.7,3.9.4,1.7.1,3.1-.9,3.8a3.438,3.438,0,0,0-1.4,2.2c0,1.6-5.4,4.2-8.7,4.2-2.2,0-2.5-.2-1.3-1,2-1.3.4-1.2-4.2.1-2.1.5-3.8,1.3-3.8,1.8,0,2,7.6,4,18.1,4.7,8.6.5,10.7.9,8.8,1.6a13.883,13.883,0,0,1-5.9.5,50.1,50.1,0,0,0-8.5.2c-4.6.6-4.3.7,4.6,1.4,10,.8,19.9.1,19.9-1.4,0-.5,1-.9,2.3-.8,2.1,0,2.1.1.2.8l-2,.8,2,.6c1.1.3,3.7.8,5.8,1.2,3.3.5,3.7.4,3.7-1.5v-2.1l2.6,2a9.888,9.888,0,0,0,5.3,2.1c2.5-.1,2.4-.3-2.1-4.1-4.9-4.2-6.6-7.3-2.5-4.6a102.228,102.228,0,0,0,9.6,4.6c5.8,2.5,8.7,3.1,14,3,6.5,0,6.6,0,4.1-1.7-4.4-3-7.5-6.5-6.2-7,.7-.2,5.6.5,11,1.7,10.6,2.2,17.7,2.9,18.8,1.8.8-.8-2.2-2.1-9.8-4.2-3.9-1-5.8-2.1-5.8-3.1,0-2.1,7.9-.9,14,2.1a33.135,33.135,0,0,0,11.8,2.7c6.8.5,7.2.4,6.6-1.4-.5-1.8-.4-1.8,3.1-.3,3.1,1.2,4.9,1.3,10.4.4,8-1.2,15.3-5.2,8.6-4.7-1.4.1-2.5.5-2.5.9,0,.3-1.1,1.1-2.5,1.7-2.1,1-3.2.9-6.1-.6-3.2-1.7-3.4-2-1.9-3.2,2.9-2.4,12.6-2.5,16.9-.2,2.9,1.6,4.4,1.8,6.9,1.1,1.7-.5,8.1-.6,14.2-.3,8.4.5,12.2.3,16.1-.9,6.8-2,8.6-.7,2.9,2.1-4.9,2.4-5.8,4.2-2.2,4.2a28.64,28.64,0,0,1,6,1.1c4.6,1.2,5.1,3.4.5,2.3-2.9-.6-3.1-.5-1.9,1,1.2,1.4.9,1.6-2.7,1.6-2.8,0-4.4.5-5,1.6s-1.1,1.3-1.6.5a3.573,3.573,0,0,0-2.7-1.1c-1,0-1.9-.5-1.9-1,0-.6-.9-1-2-1a2.941,2.941,0,0,1-2.6-1.5,3.069,3.069,0,0,0-2.6-1.5,9.21,9.21,0,0,1-4.5-2c-3-2.3-6.5-2.7-5.7-.6.3.7-.3,1.6-1.3,2-1.3.5-1.4.9-.4,1.5,1.8,1.1-9.4,3.8-14.4,3.4-4.1-.3-10.1,1.2-11,2.7-.3.4.5.6,1.7.3,2-.4,1.9-.2-.4,1.2-3,1.7-7,1.2-8.9-1.1-1.3-1.6-7.5-1.9-8.4-.4a1.461,1.461,0,0,1-1.8.4c-.8-.3-2.7.2-4.3,1.1a14.672,14.672,0,0,1-4,1.5c-.6,0-3.2,1.6-5.8,3.6-3.2,2.5-5.2,3.3-6.6,2.9-1.1-.4-5.3-.8-9.3-1-3.9-.3-11-.9-15.7-1.6-10.3-1.4-14.7-.8-8,1,2.5.6,7,1.9,9.9,2.8l5.5,1.7-3.3,1.3c-2.6,1.1-5.8,1.2-15.4.4-7.2-.5-13-.6-14.4,0-1.7.6-3.3.4-5.5-.7-2.5-1.3-3.6-1.4-5-.5-2.5,1.5-4.8,1.4-6.9-.5-1-.9-2.3-1.3-3-.8a17.917,17.917,0,0,1-5.1,1.1c-3.4.3-4.4-.1-6.9-2.8-1.9-2.1-3.5-2.9-4.6-2.5q-1.65.75-3.9-2.1c-1.9-2.4-2.5-2.6-4.5-1.6a17.825,17.825,0,0,1-5.4,1.2c-1.6.1-3.5.8-4.1,1.6a4.128,4.128,0,0,1-2.8,1.5c-1,0-1.4.5-1.1,1a2.205,2.205,0,0,1-.4,2.4c-.9,1.1-.6,1.2,1.6.9,2.7-.5,2.7-.5.8,1-1.8,1.3-9.5,2.6-16.4,2.7-3,0-5.2-1.7-4.4-3.6.8-2.1-.3-1.7-2.9,1.1-1.9,2.1-3.5,2.6-8.4,2.8-3.3.2-7,1.1-8.4,2s-6.3,2.5-10.9,3.6c-10.2,2.5-11.7,3.6-3.4,2.7a47.122,47.122,0,0,1,12.9.6l6.8,1.2L373-502.3c-8.5,1.3-20,2.9-25.5,3.6s-9.5,1.6-8.8,2c1.6,1,18.2,3.3,33.3,4.7,6.9.6,22.2,2.2,34,3.6,36.1,4.2,51,5.2,51,3.4a1.028,1.028,0,0,0-1.1-1c-3.2,0-15-4.3-14.2-5.1.9-.9,28.6-2.1,80-3.5,13.9-.4,25-1.1,24.7-1.5-.9-1.4.9-1.7,37.1-4.9,22.7-2.1,72.8-7.7,84.5-9.6a306.223,306.223,0,0,0,34.3-7.6c6.3-1.7,7.7-2.4,7.1-3.7a9.736,9.736,0,0,1-.6-3.4,1.55,1.55,0,0,0-1.6-1.7c-2.1,0-7.8-3.4-11.4-6.8l-2.8-2.6-2.4,2.3c-2.4,2.2-5.7,2.6-5.7.6a5.042,5.042,0,0,0-1.1-2.2c-.7-.9-2.2-.3-5.9,2.4l-5,3.5-4.5-1.7c-4.1-1.5-4.7-1.6-6.9-.1-1.5,1-2.6,1.2-3,.6-.3-.6.1-1,.9-1,.9,0,1.6-.5,1.6-1,0-.6-1.4-1-3.1-1-2.4,0-3-.4-2.5-1.5.3-.9,0-1.5-.7-1.5a7.345,7.345,0,0,1-3.3-1.4c-1.7-1.3-1.5-1.4,2.4-1,4.8.6,5.5-.7,1.5-2.6l-2.8-1.2,2.3-.9c1.6-.6,5-.3,10.5,1,12.1,2.9,16,3.4,15.2,2.2a2.841,2.841,0,0,0-2.3-1.1c-1.9-.1-11.3-4.9-9.6-5,.5,0,5.1,1.1,10.2,2.4s9.2,2,9.2,1.5c0-.7,7.9-.6,15,.3,1.4.2,2.8-.1,3.2-.7.5-.6.8-.5.8.2a1.23,1.23,0,0,0,1.1,1.3c.6,0,.9-.8.7-1.8-.7-3.1,4.9-6.2,11.1-6.3h5.6l-4.2-1.9a41.89,41.89,0,0,0-7.8-2.6c-4.2-.8-4.6-2.1-.7-2.6,3-.5,2.8-.5-6.1-3.3-6.4-2-8.9-4.1-6.3-5.1a9.437,9.437,0,0,1,4.4.1c3.4,1,17.8,1.2,21.3.3,1.4-.3,5.6-.1,9.2.6,3.7.7,6.9,1.1,7.1.8.9-.9-2.3-3.2-6-4.5-5.3-1.7-5.8-3.9-.8-3.6,6.5.4,14.4-.1,14.4-.9s-9.3-3.2-12.3-3.2c-1.1,0-1.5-.5-1.1-1.1.9-1.5,8.1-.5,14.2,2a46.2,46.2,0,0,0,11.7,2.5c6.3.6,7.6.3,12.8-2.2l5.8-2.8-1.9-2.5a27.8,27.8,0,0,0-7.1-4.9c-2.8-1.3-5.1-2.9-5.1-3.6s-.9-1.6-2-1.9c-3-1-2.4-2.2.8-1.7,1.9.2,4.1-.5,6.5-2.1a34.227,34.227,0,0,1,8.7-3.8c3.5-.9,5-1.8,5-2.9,0-1.6-13.9-11.4-22-15.5a46.035,46.035,0,0,1-7.7-5.6c-2.4-2.2-5.1-3.9-6.2-3.9a4.46,4.46,0,0,1-3.2-1.7,60.408,60.408,0,0,0-8-5.8c-8.7-5.6-16-14.8-24.3-30.6-5.3-10-8.1-12.9-12.4-12.9a57.8,57.8,0,0,1-10-1.5l-6.3-1.5-4.5,3.1c-4.1,2.8-4.7,2.9-7.9,1.9-2.4-.8-5.3-3.4-9.2-8.1-7.1-8.6-11.2-10.5-20.7-9.4l-6.6.7-5.7-4.5c-14.4-11.1-21.4-18.3-26.6-27.4-5.9-10.4-11.6-18.3-15.2-21.1a16.739,16.739,0,0,0-6.8-2.7,59.334,59.334,0,0,1-9-2.6C567.4-752.6,556.6-752.5,548-749.8Zm5.9,7.2a12.049,12.049,0,0,0-4.8,6.5c-.6,2.2-1.7,4-2.4,3.8-.8-.1-1.2,1.5-1.3,4.8a26.789,26.789,0,0,1-1.3,7.5c-.9,2-1.1,1-.6-5.3.5-8.4-.4-9.9-2.4-3.9-.8,2.2-2,3.9-2.8,3.9-1.3,0-1.4-1-1-5,1-7.7,3.4-10.9,9.7-12.9a39.761,39.761,0,0,1,8-1.7C557.3-745,557.2-744.9,553.9-742.6ZM535-741.1c0,1.3-2.8,3.3-4.1,2.9-.8-.3-.6-.9.5-2.1C533.3-742.1,535-742.5,535-741.1Zm-13.6,5-4.9,4.9-.3-3c-.4-3.7-3-4.8-5.1-2.2a5.851,5.851,0,0,1-3.5,1.9c-3,0-9.8,11.7-11.6,20-.7,3.1-.8,2.2-.4-3.8.5-8.5-.6-9.7-2.7-2.7-.7,2.3-1.9,4-3,4.3-1.7.5-1.9-.1-1.8-4.6a30.949,30.949,0,0,1,1.2-8.7c1.1-3.2,1.9-3.7,8.2-5.8,5.6-1.9,18.3-4.2,27.4-5.1C525.7-740.9,524.2-738.8,521.4-736.1Zm-36.9,4c-.3.5-2,1.4-3.8,2-3.6,1.2-7.7,6.5-7.7,10.1a6.777,6.777,0,0,1-1.7,4.2c-.9,1-1.1,1.8-.5,1.8a1.935,1.935,0,0,0,1.5-1.3c.2-.6.7-.9,1.1-.5.8.7-1.4,9.2-4.5,17.3a33.018,33.018,0,0,0-1.9,7.1c0,2.5-5.9,14.4-7.2,14.4-1.4,0-.9-6,.6-6.6,2-.8,3.9-5.9,3.2-8.8a3.525,3.525,0,0,1,1-3.7c2.1-1.7,4.4-6.4,4.4-8.9,0-3-1.6-1.6-2.3,2-.4,1.6-1.2,3-1.8,3-1.1,0-.9-2.8,1-12.7.9-4.4.8-5.8-.7-8.5l-1.8-3.6a15.638,15.638,0,0,0-3.2.4c-3.2.6-7.9,6.4-6.8,8.2.5.9-2.8,4.2-4.4,4.2-1.4,0-1.9,1.3-4.1,11.7a120.155,120.155,0,0,0-2.3,19.8c-.2,7.1-.7,10.7-1.8,12.5a21.517,21.517,0,0,0-2.3,6.5,25.016,25.016,0,0,1-1.7,5.9c-1,1.8-1.1,1.8-2,.2a8.6,8.6,0,0,1-.2-4.9,30.276,30.276,0,0,0,.5-6.8,22.357,22.357,0,0,1,1.3-7.5,48.76,48.76,0,0,0,1.9-11.4c.3-4.1,1.3-14.3,2.1-22.5.9-8.3,1.4-16.2,1-17.7l-.6-2.8,6.4.6A41.21,41.21,0,0,1,455-727c1.4.8,14.5-3.3,16.5-5.1C472.7-733.3,485.3-733.3,484.5-732.1Zm-53.7,7.2c-2.8,3.7-2.9,4-6.1,10.5-1.4,2.9-2.3,6.2-2,7.6.4,2-6.5,19.9-8.4,21.8-.2.3-.1-2.3.3-5.8.3-3.4.4-6.2.1-6.2s-2.5,4.2-5,9.3c-4,8.5-10.3,17.4-11.4,16.3-.3-.3.4-2,1.5-3.8s5.7-10.7,10.3-19.8c8.3-16.6,11.1-21.1,18.4-28.7C433.3-728.8,433.9-729.1,430.8-724.9Zm17.8,45.6c-1.1,1.1-1.7-.4-.9-2.3.7-1.8.8-1.8,1.1-.1A3.443,3.443,0,0,1,448.6-679.3ZM419-677.1c0,1.1-1.4,3-3,4.3-7.1,5.4-8.2,6.7-12.9,14.1-4.2,6.6-5,7.5-5.3,5.5-.4-2.2-.5-2.2-1.7.7a28.2,28.2,0,0,0-1.6,5c-.4,2.9-3.4,10.3-3.4,8.5a25.858,25.858,0,0,1,1.3-5.3c.8-2,1-3.7.6-3.7-1.6,0-5.3,6.2-8.1,13.4-1.9,4.7-2.9,6.3-2.9,4.6-.1-2.5-.1-2.5-1.7-.5-1.5,1.9-1.5,1.8-.9-1.5,2-10.7,2-12-.3-12a14.006,14.006,0,0,0-4.4,1c-2.2,1.1-2.2,1.1-.2-.5,1.1-.9,4.2-3,7-4.8,2.7-1.8,5.9-4.7,7-6.5,5.1-8.3,6.2-9.5,9.7-10.7a30.436,30.436,0,0,0,7.9-4.9c2.3-2,4.8-3.6,5.4-3.6s2.2-1.1,3.5-2.5C417.8-679.5,419-679.7,419-677.1Zm102.4,7.6a6.261,6.261,0,0,1-2.9,1.4c-.5,0-.1-.6.9-1.4a7.474,7.474,0,0,1,3-1.5C522.9-671,522.5-670.3,521.4-669.5Zm-109.1,9.3c-2.5,4.7-5.2,10.2-5.9,12.1-.8,2.3-1.3,2.9-1.4,1.6,0-2.6,10.2-23.5,11.3-22.8C416.7-669.1,414.9-665,412.3-660.2ZM528-665.1a4.121,4.121,0,0,1-1.5,2.1c-1.3,1-1.5.9-1.5-.9,0-1.2.6-2.1,1.5-2.1C527.3-666,528-665.6,528-665.1ZM359.9-629.3a82.671,82.671,0,0,0-7.9,9.7c-1.3,2.2-2.6,3.4-2.8,2.8s-1-.8-1.8-.5c-1,.4-1.4-.2-1.4-2,0-2,1.8-3.9,8.6-9.1,4.8-3.6,9.1-6.6,9.7-6.6C364.8-635,362.9-632.4,359.9-629.3Zm21.2,6c-1.2,2-1.4,1.4-.5-1.2.4-.9.9-1.4,1.1-1.1C382-625.4,381.7-624.3,381.1-623.3Zm-54.3,10.5c-3.5,3.4-8.1,7-10.3,8-4.6,2.2-5.1,2.7,6.7-8.1C332.1-621,335.1-620.9,326.8-612.8ZM430.5-592c-.3.6-2.1,1.7-3.8,2.6l-3.2,1.5,2.8-2.5C429.1-593,431.7-593.9,430.5-592Zm34.2,1.5c-1.5,1.4-3.3,2.5-3.9,2.5-1.4,0-.6-.8,2.9-3.1C467.6-593.6,468-593.3,464.7-590.5ZM303.8-574.9a6.646,6.646,0,0,1-3.2.9c-1.8,0-1.8-.1-.1-2,1.4-1.6,2.1-1.7,3.2-.8S304.8-575.5,303.8-574.9Zm428-2.5c1.2.4,2.2,1.1,2.2,1.7,0,1.3-12,.4-14.6-1.1-1.5-.9-.7-1.1,4.1-1.2A50.5,50.5,0,0,1,731.8-577.4ZM462.4-566.9c-.7,1.1-4.4,1.2-4.4.1,0-1.5,1.1-2,3-1.5C462.1-568,462.7-567.4,462.4-566.9ZM340-559.5c-.1.5.7,1.2,1.7,1.6,1.3.5.7.8-2.2,1.3-10,1.7-9.7,1.7-8.3.2,1.8-1.8,7.1-4.6,8.1-4.3A1.028,1.028,0,0,1,340-559.5ZM655.5-557c.3.5.2,1-.4,1a2.335,2.335,0,0,1-1.6-1c-.3-.6-.2-1,.4-1A2.039,2.039,0,0,1,655.5-557ZM327-556a1.1,1.1,0,0,1-1.1,1c-.5,0-.7-.5-.4-1,.3-.6.8-1,1.1-1C326.8-557,327-556.6,327-556Zm169.6,4.7a5.769,5.769,0,0,1-1.4,3.2c-1.2,1.2-1.5,1.2-2.3,0-.6-1-.2-1.9,1.2-3.2a16.332,16.332,0,0,1,2.4-1.7C496.7-553,496.7-552.2,496.6-551.3ZM642-544a3.7,3.7,0,0,1-2.8,2,17.575,17.575,0,0,0-4.1.7c-3.4.9-1.8-1.5,2.3-3.3C642-546.6,643.3-546.4,642-544Zm-95,18.6c0,.2-.9.4-2.1.4-1.1,0-1.8-.4-1.4-1C544-526.8,547-526.3,547-525.4Zm-117,2.8c0,.3-.4.8-1,1.1-.5.3-1,.1-1-.4a1.1,1.1,0,0,1,1-1.1C429.6-523,430-522.8,430-522.6Zm72,8.6c1.3.8,1.3,1-.2,1a3.105,3.105,0,0,1-2.3-1C498.7-515.3,500-515.3,502-514Zm-91,3.2c-.1,3-1.7,3.9-5.4,3.3-4.1-.8-4.3-2.6-.5-3.6C409-512.2,411-512.1,411-510.8Zm11.5-.2a3.851,3.851,0,0,1-2.8,1c-1.8,0-1.9-.2-.7-1C421-512.3,423.3-512.3,422.5-511Z"/>
      <path id="Trazado_39912" data-name="Trazado 39912" d="M508.4-668.3c-3.9,2.7-7.7,5.7-21.2,16.6-8,6.5-9.4,8.3-2.9,3.9,2.3-1.6,6-3.9,8.2-5.1a91.5,91.5,0,0,0,10.4-7.2C512.7-667.8,516.8-674,508.4-668.3Z"/>
      <path id="Trazado_39913" data-name="Trazado 39913" d="M469-638.4c-4.9,1.6-26,12.9-26,13.9,0,1.8-5.4,5.7-13.5,9.8-8.1,4-12.3,7.1-10.8,8,1.1.7,10.4-3.4,13.9-6.2,1.4-1.1,6.2-3.4,10.7-5.1,6.1-2.3,10.4-4.9,17.3-10.5C472.3-638.1,473.9-640,469-638.4Z"/>
      <path id="Trazado_39914" data-name="Trazado 39914" d="M462.1-624.9c-1.8,1.1-3.1,2.3-2.8,2.6.6.5,6.7-3.4,6.7-4.3C466-627.2,465.7-627.1,462.1-624.9Z"/>
      <path id="Trazado_39915" data-name="Trazado 39915" d="M451.3-614.9a17.094,17.094,0,0,0-3.3,2.5c0,.5,4.4-1.8,7-3.5C457.9-617.9,454.5-616.9,451.3-614.9Z"/>
      <path id="Trazado_39916" data-name="Trazado 39916" d="M440.5-614c-.4.6-3.2,2.4-6.3,4s-5.1,2.9-4.4,3a11.158,11.158,0,0,0,4-1.5,68.891,68.891,0,0,1,6.5-2.9c2-.8,3.7-2,3.7-2.5C444-615.3,441.3-615.3,440.5-614Z"/>
      <path id="Trazado_39917" data-name="Trazado 39917" d="M402.7-602.4c-1.6.9-2.6,1.8-2.3,2.1s2-.4,3.8-1.6C408-604.3,406.9-604.7,402.7-602.4Z"/>
      <path id="Trazado_39918" data-name="Trazado 39918" d="M425.4-566.5c-1.6,1.2-1.6,1.4-.3,1.5a4.571,4.571,0,0,0,2.9-1.5C429.6-568.4,428-568.4,425.4-566.5Z"/>
      <path id="Trazado_39919" data-name="Trazado 39919" d="M743.8-567.3a2.026,2.026,0,0,0,1.9-.1c.4-.3-.2-.6-1.3-.5C743.3-567.9,743-567.6,743.8-567.3Z"/>
      <path id="Trazado_39920" data-name="Trazado 39920" d="M747.8-566.3a2.026,2.026,0,0,0,1.9-.1c.4-.3-.2-.6-1.3-.5C747.3-566.9,747-566.6,747.8-566.3Z"/>
      <path id="Trazado_39921" data-name="Trazado 39921" d="M751.8-565.3a2.026,2.026,0,0,0,1.9-.1c.4-.3-.2-.6-1.3-.5C751.3-565.9,751-565.6,751.8-565.3Z"/>
      <path id="Trazado_39922" data-name="Trazado 39922" d="M746.4-562.9c-.8,1.3,2.6,4.3,3.5,3.3.3-.4,0-.9-.7-1.1-.6-.3-1-.9-.7-1.3a1.012,1.012,0,0,0-.4-1.4A1.24,1.24,0,0,0,746.4-562.9Z"/>
      <path id="Trazado_39923" data-name="Trazado 39923" d="M321.3-553.3c-1.3.2-2.3.8-2.3,1.3,0,1,3.8.1,4.6-1.1.3-.5.4-.8.2-.8A14.847,14.847,0,0,1,321.3-553.3Z"/>
      <path id="Trazado_39924" data-name="Trazado 39924" d="M315.8-551.3a2.026,2.026,0,0,0,1.9-.1c.4-.3-.2-.6-1.3-.5C315.3-551.9,315-551.6,315.8-551.3Z"/>
      <path id="Trazado_39925" data-name="Trazado 39925" d="M390.5-538c-1.3.6-1.5.9-.5.9a6.91,6.91,0,0,0,3-.9C394.8-539.2,393.2-539.2,390.5-538Z"/>
      <path id="Trazado_39926" data-name="Trazado 39926" d="M420.1-536.1c-1.1.7-1.1,1,0,1.5.8.3.3.4-1,.3s-2.6.4-2.9,1.2c-.4,1.1.6,1.3,5.3.8,6-.6,8.2-1.7,7.1-3.6C427.8-537.2,422.1-537.3,420.1-536.1Z"/>
      <path id="Trazado_39927" data-name="Trazado 39927" d="M476-529c0,.9,1.9,1.2,6.5,1.2,3.2,0,3.9-.4,2-1.2C481.7-530.2,476-530.2,476-529Z"/>
      <path id="Trazado_39928" data-name="Trazado 39928" d="M505.8-388.3a30.031,30.031,0,0,0,6,0c1.5-.2,0-.4-3.3-.4S504-388.5,505.8-388.3Z"/>
    </g>
  </g>
</svg>
