<svg xmlns="http://www.w3.org/2000/svg" xmlns:xlink="http://www.w3.org/1999/xlink" width="495" height="266" viewBox="0 0 495 266">
  <defs>
    <clipPath id="clip-path">
      <rect id="Rect치ngulo_1796" data-name="Rect치ngulo 1796" width="376.017" height="200.88" fill="none"/>
    </clipPath>
  </defs>
  <g id="Grupo_5031" data-name="Grupo 5031" transform="translate(-18561 -15783)">
    <rect id="Rect치ngulo_1798" data-name="Rect치ngulo 1798" width="495" height="266" transform="translate(18561 15783)" fill="rgba(255,255,255,0)"/>
    <g id="Grupo_5027" data-name="Grupo 5027" transform="translate(18620 15816)">
      <g id="Grupo_5023" data-name="Grupo 5023" clip-path="url(#clip-path)">
        <path id="Trazado_39968" data-name="Trazado 39968" d="M154.2,81c4,4.9,14.086,16.705,14.086,16.705L162.6,113.9l4.7-1.8c2.6-1.1,7-2.9,9.7-4.1,27.4-11.9,46.1-15.4,70.8-13.3,5.3.5,9.7.6,9.7.3s-3.3-3.8-7.2-7.7c-8.3-8.2-10.1-8.9-26.3-10.1l-10-.7s.249-50.043-2-50.3-2.843,50-2.843,50L201,76.5S198.9,58,198.5,58c-.5,0-15,5.1-15,5.1S125.3,0,124.8,0c-.2,0,56.4,67.9,54.9,69.3-1.3,1.3-1.3,2.1-.4,4.2,1.1,2.3-.8,7.6-2.2,9.1a77.812,77.812,0,0,0-6.2,7.739C169.9,92.239,85.3-5.1,89.6.5,90.5,1.6,152,78.3,154.2,81"/>
        <path id="Trazado_39969" data-name="Trazado 39969" d="M238.115,123.095,278.6,118.5l-15.311-16.222L224.3,103Z"/>
        <path id="Trazado_39970" data-name="Trazado 39970" d="M220.6,103.125s-12.558.339-20.1,2.876c-13.485,3.952-29.281,11.516-36.081,14.516-5.2,2.3-12.319,14.684-13.619,16.784-1.4,2.2-2.2,4.1-1.9,4.4.6.6,9.5-1.2,34.1-7.2,10.5-2.5,26.3-5.9,35.3-7.6l16.2-3.1-1.7-2.7c-1-1.5-4-5.9-6.7-9.9Z"/>
        <path id="Trazado_39971" data-name="Trazado 39971" d="M376,109.9c-.7-1.1-30.3-1-43.5.2-11.3,1.1-14.1,2.1-17.9,6.4l-2.9,3.3-19.8,1.6c-43,3.5-71.8,8.5-112.9,19.6-31.3,8.4-42.3,10.9-52.8,12-6,.7-11,1-11.3.7-.2-.2,3.5-1.2,8.3-2.2,10.8-2.1,14.8-3.7,16.3-6.5l1.2-2.2-13.7.3-13.6.4-5.3,5.7c-4.1,4.5-6,5.8-8.2,5.8-1.6,0-11.9,1.6-22.9,3.5S56.7,162,56.4,162c-.7,0-3.9,7.4-3.9,9,0,1.3,17.1,1.3,49,0,13.5-.5,48.6-1.7,78-2.5,67.4-2,79.9-1.3,115.3,6a120.361,120.361,0,0,0,14.6,2.5c5.7,0,36.1-28.9,58.5-55.8,4.8-5.7,8.4-10.7,8.1-11.3M205.1,148c-3.7.6-6.4.6-6.9.1-.9-.9,1.2-1.7,8.8-3.4,3.7-.9,8.5-.7,8.5.3s-1.2,1.4-10.4,3m49.4-8.3c-7.9,1.5-12,1.6-12,.4s2.9-2.1,9.5-3.1c6.2-1,9-.8,9,.5,0,.5-2.9,1.5-6.5,2.2m42.6-4.1c-1.5-.4-2.6-1.2-2.3-1.9.9-2.8,12.2-3.4,12.2-.7,0,1.9-6.3,3.5-9.9,2.6m70.5-19.9-3,3.7-47.245.019c0-.4,1.545-2.319,3.345-3.519,3.8-2.8,10.8-3.5,34.1-3.7l15.8-.2Z"/>
        <path id="Trazado_39972" data-name="Trazado 39972" d="M138,179c8.3-1.1,18.6-2.4,23-2.9,9.3-1.2,2.2-1-53.8,1.1-30.8,1.1-62.2.6-100.2-1.8L0,175l9,2.5c18.6,5.1,27.8,6,58.5,6,28.5,0,41.9-.9,70.5-4.5"/>
        <path id="Trazado_39973" data-name="Trazado 39973" d="M283,180.4c-17.2-1.8-65.4-2.6-79-1.3-5.5.5-19,2.1-30,3.5s-27.6,3.4-37,4.3l-17,1.8,9,.8c10.3.9,29.2.2,57.5-2.1,16.5-1.4,26.6-1.5,66-.8,50.2,1,83.2.8,97.5-.4l9-.8-13-.7c-33.7-1.9-50.1-3-63-4.3"/>
        <path id="Trazado_39974" data-name="Trazado 39974" d="M149,197.2c-15.4,0-21.8-.7-51.5-5.2A174.169,174.169,0,0,0,69,190.1l-15,.1L65,192c6.1,1,18.9,3.2,28.5,5,20.8,3.7,40.7,4.8,55.6,3.1,17.2-2,17.2-2.8-.1-2.9"/>
      </g>
    </g>
  </g>
</svg>
