<svg xmlns="http://www.w3.org/2000/svg" width="215.59" height="215.588" viewBox="0 0 215.59 215.588">
  <g id="Grupo_5019" data-name="Grupo 5019" transform="translate(-18665.998 -12277.196)">
    <path id="Trazado_39873" data-name="Trazado 39873" d="M215.588,107.794A107.795,107.795,0,1,1,107.8,0,107.794,107.794,0,0,1,215.588,107.794" transform="translate(18666 12277.196)" fill="rgba(255,255,255,0)"/>
    <path id="Trazado_39874" data-name="Trazado 39874" d="M94.589,190.138a107.567,107.567,0,0,0,83.005-39.027c-2.027-1.229-4.509-1.5-5.849-.954l-.981-1.249c-.165-.21-.8.235-.812.487l-2.17-1.728c1.366-.653-7.168-4.362-6.764-4.613l-1.168.725c-4.925-6.686-8.367-3.2-10.9-13.376l-2.917-.6c-.78-.159-1.041-2.3-1.15-3.207a8.148,8.148,0,0,1-2.7.114,4.2,4.2,0,0,1-1.758-2.125,5.194,5.194,0,0,0,.93-5.66c-.569-1.235-2.435-3.568-3.839-3.179-1.31.362-3.365,1.28-4.05.641-9.2-8.586-1.761-2.149-11.522-6.982a20.87,20.87,0,0,1-4.395-2.833l-11.179.96c-3.153.271,7.142-5.476,6.4-6.536l-4.125-6.3a26.73,26.73,0,0,0,3.445-9.725c1.166-5.906,2.79-11.354,1.761-17.453l3.836.037,1.427-6.768c.368-1.747,1.274-6.9-1.316-7.574a9.681,9.681,0,0,0-2.725.282l-6.379.874c-.819.112-2.1.587-2.682.319-2.364-1.083-2.219-.767-2.219-.767l-1.743-.833c.2-2.131-2.781-.326-2.781-.326l-.792-.563c-.2-2.056.2-.818-4.974,1.918,0,0-3.107-.657-1.857,1.41l-1.416,2.047a17.715,17.715,0,0,0-2.647-2.725c-1.021-.72-3.552-.361-4.278.856-.56.94.165,3.243.659,4.082A7.326,7.326,0,0,0,75.552,67c-.064,1.541,1.9,3.824,3.2,5.072-.325,5.193-3.568.657-4.811,11.187-.5,4.281,2.042,7.948,2.426,11.7A13.985,13.985,0,0,0,82.183,105.4c1.765,1.416,4.1,4.9,6.027,5.152.657.085,1.178,1.863.958,2.337-.276.591-1.74.824-2.352.584l-5.438-2.131c-1.611-.632-4.538-3.5-6.53-1.959l-8.171,6.343c-1.476,1.7-1.959,5.658-3.111,7.665l-2.879,5.013c-3.1-.564-3.89,1.189-5.145,3.3l-3.594,6.061c-2.572,4.338-4.718,5.151-4.369,9-1.452-.147-3.517,0-4.594,1.059l-3.751,3.7c-1.879,1.851-3.993,3.2-4.917,5.768-1.747,4.86-4.377,5.645-7.765,8.646a107.33,107.33,0,0,0,68.038,24.2" transform="translate(18679.205 12302.646)" fill="#22c55e"/>
    <rect id="Rectángulo_1794" data-name="Rectángulo 1794" width="215.588" height="215.588" transform="translate(18666 12277.196)" fill="none"/>
  </g>
</svg>
