<svg xmlns="http://www.w3.org/2000/svg" xmlns:xlink="http://www.w3.org/1999/xlink" width="435" height="435" viewBox="0 0 435 435">
  <defs>
    <clipPath id="clip-path">
      <circle id="Elipse_562" data-name="Elipse 562" cx="217.5" cy="217.5" r="217.5" transform="translate(21511 12078)" fill="#fff"/>
    </clipPath>
  </defs>
  <g id="Enmascarar_grupo_227" data-name="Enmascarar grupo 227" transform="translate(-21511 -12078)" clip-path="url(#clip-path)">
    <g id="ChatGPT-Image-5-ene-2026_-11_12_32-p.m." transform="translate(21211.244 12905.778)">
      <path id="Trazado_39929" data-name="Trazado 39929" d="M487.5-903.9C399.7-896.4,318.8-859.5,258-799c-39.5,39.3-70.4,89.1-86.8,140-10.1,31.4-14,53-16.8,94-.8,12.1,1.1,43.6,3.7,60.5C171.8-415,222.5-335,300-280.5c46.5,32.6,105.6,55.7,163.5,63.9A390.92,390.92,0,0,0,592-220.1c118-23.2,218-101.4,262.3-205.2,23.9-55.9,31.2-115.1,22.1-178.7-11-77.6-53.6-154.4-115.1-207.8-40.3-35-84.9-60.5-130.3-74.5C581.6-901.6,532.2-907.7,487.5-903.9Zm55,10.9a370.286,370.286,0,0,1,77.9,14.6c72.7,21.9,135.9,65.9,182.4,127,9.1,12,25,37.9,32.9,53.9,16.4,32.7,27.8,72,31.9,109.5,1.9,17.6,1.5,58.4-.7,74.7l-1.2,9.1-3.2.6a54.612,54.612,0,0,0-9.9,4c-5.5,2.7-7.6,3.2-11.4,2.9a13.48,13.48,0,0,0-8.5,1.6c-4.4,2.3-3.9,3.1-6.8-10.4-1.1-5.5-4.3-16.6-7-24.7-2.7-8-4.9-15-4.9-15.4s1.1.3,2.4,1.5,2.9,2.1,3.6,1.9,2,1,2.9,2.7c.9,1.6,1.7,3.2,1.9,3.4.1.3.8-.3,1.5-1.3,1.1-1.5,1.5-1.4,4.7,1.9,1.8,1.9,4.2,3.5,5.2,3.5s2,1,2.4,2.5c.7,2.7,1.9,3.3,2.7,1.2.7-1.8,2.9,4.5,2.4,7-.6,3.4,2.6,1.2,4.7-3.1,3.5-7.3,1-16.3-6.2-22.8-5.3-4.8-9.1-6.7-14.7-7.5-6.1-.8-4.4-2.4,2.6-2.5,3-.1,5.7-.6,6.1-1.2.5-.7,1.7-.5,3.7.7,3.7,2.2,4.1,2.1,4.1-.3,0-2.2,1.5-2.7,2.4-.8.5,1,.7,1,1.2,0,1-2.1,2.9-1.4,5.4,2l2.4,3.2.7-2.6c1-4,0-7.3-3.7-11.7-4.7-5.4-10.5-7.5-19.3-6.9-5.1.4-8.2,1.2-11.6,3.2-5,3-6.7,3-3.5.1a5.93,5.93,0,0,0,2-3.1c0-.8,1.1-1.6,2.5-2,2.9-.7,3.2-1.9.9-3.2-1.3-.7-.8-1.2,2.5-2.6,3.9-1.5,4.8-3.6,1.5-3.6-.8,0-1.4-.5-1.4-1,0-.6.6-1,1.3-1,.8,0,2.4-1.1,3.6-2.4a10.38,10.38,0,0,1,5.5-2.8l3.1-.3L837-595c-1.6-.9-5.3-1.4-10-1.5-6,0-8.5.5-12.4,2.4a22.569,22.569,0,0,0-11.2,15c-1,5.3-1.2,5.4-5.1,1-7.8-8.6-18.4-10.7-28-5.4-2.9,1.5-5.4,3.6-5.7,4.8-.7,2.8-.1,3.2,2.9,1.9,3.7-1.7,6.8-1.5,6.1.3-.4,1.2.3,1.5,3,1.5s3.7.5,4.1,1.9a3.454,3.454,0,0,0,3.2,2.3c1.8.2,2.5.8,2.3,2-.2,1.1.3,1.8,1.4,1.8.9,0,2.7,1.1,3.9,2.5l2.3,2.4-6.3-.6a40.134,40.134,0,0,0-11.2.6c-6.6,1.6-14.4,7.2-17.3,12.3-2.4,4.3-3.2,11.4-1.7,15.6.8,2.1.6,2.2-1.6,1.7-5.9-1.5-14.9,5.4-16.3,12.4-.4,1.7-.8,3.1-1.1,3.1a24.794,24.794,0,0,1-3.8-2.6c-7.2-5.5-15.5-5.1-21.5,1.1-3.8,3.9-3.6,5.1.4,3.5a18.311,18.311,0,0,1,4.3-1c1.3,0,1.3.3.3,1.5-1.1,1.3-.8,1.5,1.9,1.5,1.9,0,3.1.5,3.1,1.3,0,.7,2.1,1.9,4.8,2.7l4.7,1.4-6.3.8c-6.7.7-11.9,3.3-15.2,7.5-2.3,2.9-2.6,8.1-.7,10.7,1.1,1.6,1.4,1.4,3.6-1.5,2.3-3,2.5-3.1,3.7-1.4.8,1,1.5,1.7,1.6,1.4.2-.2.8-1.3,1.4-2.3a4.231,4.231,0,0,1,3.2-2.1,8.049,8.049,0,0,0,4-1.8c3.3-3,3.7-1.8.4,1.6-4.4,4.6-6.7,11.6-5.2,16.1,1.1,3.4,5.4,8.6,7.1,8.6.5,0,.9-1.2.9-2.8a9.261,9.261,0,0,1,1.4-4.7,20.155,20.155,0,0,0,2-4.7c.4-1.9,1.1-2.5,2.1-2.2,1.1.5,1.5-.1,1.5-2,0-1.4.4-2.6.8-2.6.5,0,1.3-1.7,1.8-3.8l1-3.7,2.2,7a92.713,92.713,0,0,1,4.2,26.6v6.7l-5.3,2.5c-4.8,2.4-6,2.6-13.7,2.1-7.7-.6-9.2-.4-15.2,2.1-3.7,1.5-7.2,3.3-7.9,4.1-1.3,1.6-7.6,1.8-11.5.4a4.563,4.563,0,0,0-5.1.6,7.4,7.4,0,0,1-5.9.9,12.991,12.991,0,0,0-7.7,1.3,69.1,69.1,0,0,1-11.1,3.6c-5.8,1.5-7.6,1.5-11.7.5-4.4-1.2-5.6-1.1-11.8.9a37.633,37.633,0,0,1-14.2,2c-4.1-.1-21.6.1-38.9.4-33.3.7-31.1.3,15.5-2.8,13.8-.9,29.3-2.2,34.5-2.9,9-1.3,8.2-1.4-17.5-1-14.8.3-29.2.7-32,1-3.4.4-4.3.2-3-.4,2.1-.9,25.5-3.2,58.5-5.6,29.5-2.2,33.1-2.6,32.5-3.6-.4-.5-6.8-1-14.3-1-7.5-.1-18.9-.4-25.2-.8l-11.5-.6,10-.7c5.5-.4,21.8-1.1,36.3-1.4,14.4-.4,26.2-1,26.2-1.4,0-1.9-67.9-2.7-92-1.1-7.4.6-26.5,1.5-42.3,2.2s-29,1.6-29.3,2.1c-.3.4,11.8.8,26.8.9,31.9.1,43.1,1.1,24.8,2.2-6.3.4-19.4.7-29,.8-23.7.1-31,1.2-14.1,2.2,6.8.4,16.2.7,20.9.7s8.3.2,8,.6c-.3.3-8.2,1.2-17.4,2-9.3.8-23.6,2.1-31.9,2.9-8.2.8-19.2,1.7-24.3,2.1s-9,1-8.5,1.4c.8.8,32.5,7.2,66.8,13.5,25.4,4.6,56.8,11.1,63.1,12.9a25.073,25.073,0,0,1,7,3.5c1,1.1,6.2,3.4,11.4,5,20.1,6.4,21.2,10.6,3.8,13.4-3.8.6-6.8,1.4-6.8,1.8q0,1.35,13.5,2.4c10.2.9,13.6,1.5,13,2.4-.7,1.3-17,3.5-47,6.6-8.8.9-17.3,2-19,2.4-5.4,1.4,23.5,2.4,55.8,1.9,34.7-.6,34.2-.8,16.9,6.4-5.5,2.3-11.1,4-13,3.9-1.8-.1-8.8.3-15.5.9-6.7.5-24.1,1.7-38.7,2.5-52.1,2.8-68,3.9-68,4.5,0,1,19.5,1.9,54.3,2.7,16.3.3,29.7.9,29.7,1.3,0,1.8-56.3,5-89,5-11,0-18.8.4-18,.9s7.4,1.4,14.5,2c7.2.7,16.4,1.6,20.5,2.1s19.2,1.6,33.5,2.5c26.9,1.7,37.3,3.1,35.9,4.5-.5.5-9.9,1.2-20.9,1.5-22.4.6-49.4,1.8-91,4-15.4.8-29.8,1.5-31.9,1.5-6.9,0-3.4.8,8.4,1.9,23.5,2.2,66.4,4.1,93.9,4.1h28.5l-5,3.2c-4,2.6-6.3,3.3-12.9,3.9-18.9,1.7-49.2,3.8-65,4.5-18.4.8-18.6,1.3-1.1,3.8,8.6,1.2,8.9,1.3,4.6,1.9-2.5.3-19.3,1.6-37.5,2.7-18.1,1.2-33.1,2.3-33.3,2.4-1.3,1.4,82.5,7.7,105,7.9,9.1.1,16.1.5,15.5.9-1.3.6-16.8,3-32.2,4.7-4.9.6-14.6,1.8-21.5,2.6-10.8,1.3-42.7,4.2-65.8,6.1-8,.6-8.3,1.2-1.9,3.2,4.7,1.5,11.3,2.2,46.2,4.7,13.2.9,24.2,1.9,24.4,2.1.3.2-.1,1-.8,1.7-1.3,1.3-2.3,1.3-56.8.5-25-.4-33.7-.8-34.8-1.8a30.21,30.21,0,0,0-7.7-3c-3.4-.9-6.3-2.1-6.5-2.7-.4-1.1,16.3-3.6,17.9-2.7a2.15,2.15,0,0,0,2.1-.4c.7-.5,3.5-1.2,6.2-1.5,24.8-3,26-3.3,24.6-5.5-.6-1-7.4-1.7-24.2-2.7-30.9-1.9-52.6-4-73.9-7.1-26.6-3.9-46-8.2-46-10.2,0-.4,17.9-.7,39.8-.8,37.3-.1,51.4-.7,86-3.6,22-1.8,19.2-2.7-15.3-4.8-42.2-2.6-49.8-3.1-62.4-4-7.4-.5-13.6-1.2-13.8-1.4-.3-.2,3.5-.7,8.4-1,4.8-.4,11.5-1,14.8-1.3,5.3-.6,5.6-.7,3-1.4-1.6-.4-14.5-1.4-28.5-2.3-29.1-1.8-45-3.5-45-4.7,0-.5,12.5-.9,27.8-.9,15.2,0,37.8-.5,50.2-1,29.4-1.3,80.1-5,81.9-6,1.7-.9-6.9-1.5-52.9-3.4-18.4-.8-34.8-1.9-36.5-2.5-1.6-.6-21-2.2-43-3.6-55-3.6-63.6-4.3-64.3-4.9-.3-.3,4.4-.6,10.4-.6s26.9-.3,46.4-.6c22-.4,41-.2,50,.4,19.2,1.5,26.7.1,9.5-1.6-6.6-.7-13.9-1.7-16.3-2.2a31.743,31.743,0,0,0-6.3-1c-1.1,0-1.7-.4-1.4-1s5.3-1,11.3-1c15.8,0,49.5-1.9,50.5-2.9.4-.4-8.1-1.1-19-1.4-20.5-.7-52-2.6-84.8-5.2-10.4-.8-29.1-2.2-41.5-3-23.4-1.6-32.4-2.5-31.7-3.2.3-.2,36.8.6,81.3,1.8,99.3,2.6,129.5,1.9,174.6-4,13.9-1.9,20-3,21.2-4,.7-.6,5.8-1.9,11.3-3,11.9-2.3,27.1-7.2,33-10.7,18-10.5-12.1-22.8-84.2-34.4-23-3.8-30.2-5.5-38-9.2-3.3-1.5-7.6-2.8-9.5-2.8-6.1,0-26.9-2.9-28.8-3.9-1.2-.7,6-1,23.9-1,14.1,0,32.4-.5,40.5-1.1,8.2-.5,17.2-1.1,19.9-1.3,2.8-.1-11.9-.6-32.6-1.1-49.2-1.1-58.3-2.3-20.4-2.6,40.8-.4,49.5-1.4,20-2.3-12.6-.4-27.9-1.1-34-1.6l-11-.8,14.5-.2c30.4-.3,80.5-2.2,81.3-3,2-2-144.7-3.5-171.1-1.7-7.3.5-13.1,1-13,1.2.2.1,6.8,1,14.8,1.9,36.1,4,36.2,4.1,4.5,3.8-18.6-.2-28.3,0-27,.6a22.655,22.655,0,0,0,7,1c6.2.2,26.8,3.1,48.5,7.1,13.4,2.4,15.1,2.9,9,2.5-16.3-1-50.5-1.7-49.8-1,.4.4,6.2,1.7,12.9,2.9l12.1,2.1-6.5,2.6c-6.6,2.6-6.6,2.6-9.4.7a11.7,11.7,0,0,0-6.8-1.7,14.013,14.013,0,0,1-6.2-.9c-1.2-.7-4.2-1.2-6.7-1.2-4.1,0-5.2-.5-10.1-5-3-2.7-6.7-5.3-8.1-5.6l-2.7-.7.7-9.1c1-14.7,5.1-37.6,6.7-37.6.4,0,1.2,1.3,1.8,3,.5,1.6,1.4,3,1.9,3s1.2,1.3,1.5,3c.5,2.3,1,2.8,2.3,2.3,1.4-.5,1.6-.2,1.2,1.4-.3,1.1.3,3,1.3,4.4a9.438,9.438,0,0,1,1.9,4.6c0,2.7,1.1,2.9,3.2.5,4.7-5.3,5.4-14.4,1.7-19.6a15.611,15.611,0,0,0-3.6-3.9,2.674,2.674,0,0,1-1.3-1.9c0-.6,1.1-.3,2.5.6a9.151,9.151,0,0,0,3.9,1.6,4.859,4.859,0,0,1,3,2.2c1.3,1.8,1.7,1.9,3.2.7,1.4-1.2,1.9-1,4,1.4,1.3,1.6,2.4,3.6,2.4,4.5,0,1.1.3,1.3,1.1.5,1.7-1.7,1.3-10.8-.6-13.7-2.9-4.4-8.2-7-14.6-7.1-3.2,0-6.1-.3-6.5-.7-.4-.5.3-.8,1.5-.8a2.989,2.989,0,0,0,2.7-1.5,3.594,3.594,0,0,1,3.1-1.5c2.2,0,2.4-.2,1.3-1.5s-.8-1.5,1.4-1.5c1.5,0,2.5-.4,2.2-.8-.3-.5.5-1.5,1.8-2.2a4.256,4.256,0,0,1,4.6,0c3.5,1.9,2-1-1.9-3.7-6.9-4.7-17.5-3.5-22.1,2.5-2.4,2.9-2.3,3-3.8-2.5-2.5-8.5-8.2-12.7-16.8-12.1-4.3.3-4.9.6-5,2.6-.1,1.3.4,2.5,1,2.7,3.9,1.1,5,1.8,3.8,2.2-1.7.6.4,3.3,2.6,3.3.8,0,1.2.3.9.6-.4.4-2.6.1-5-.5a13.644,13.644,0,0,0-8.7-.1c-5,1.3-10,4.7-10,6.8,0,1.2.3,1.2,1.6.1,1.2-1,1.7-1,2.3-.1a1.934,1.934,0,0,0,2.4.6c1.2-.4,1.7-.1,1.7,1,0,1.2.6,1.5,2.3,1,1.3-.3,4.8.3,7.8,1.2l5.4,1.8-4.6.7c-6,.9-7.8,1.9-12.2,6.9-3.4,3.7-3.7,4.5-3.7,10.1s.2,6.1,2,5.6c1.3-.3,2,0,2,.9,0,.8.5,1.4,1,1.4,1.4,0,1.3-1.3-.2-2.8-1.8-1.8.6-4,2.5-2.4,1.1.9,1.6.7,2.5-1.3.6-1.4,1.8-2.5,2.6-2.5a3.371,3.371,0,0,0,2.5-1.8c.9-1.4,1.2-1.5,2-.2.8,1.2,1.2,1.2,2.9-.3,1-.9,2.2-1.4,2.5-1.1.4.4,1.3.1,2.2-.6,2.2-1.9,3-.4,1.5,2.7-3.3,7.3-6.6,21.8-7.5,33-.6,8.2-.9,9.2-2.4,8.4a24.79,24.79,0,0,0-5.9-1.6c-3.4-.5-5-1.6-7.9-5.1-4.5-5.4-10.4-7.9-16.7-7.2-3.8.5-4.8.2-6.7-1.8a27.967,27.967,0,0,0-6.6-4.5c-3.7-1.8-5.3-2-11.9-1.4l-7.6.8-4.8-4.8c-5.4-5.3-5.2-3.4-2.4-22a203.057,203.057,0,0,1,8.1-32.8l2.5-7.7,2.4,2.2a7.5,7.5,0,0,1,2.4,6c0,3.9.8,4.6,2.7,2.7,1.4-1.4,3.4,5,2.6,8.3-.5,1.9-.3,2.1.8,1A5.515,5.515,0,0,1,246-522c1.2,0,3.3,5.5,3.1,8-.2,2,0,2.3,1,1.2a5.157,5.157,0,0,1,2.1-1.2c1.4,0,.9,5.5-.8,7.8-2.5,3.6-.8,3.9,3.3.6,6.6-5.4,7.8-7.8,7.8-15.2-.1-8.6-2.4-13-10.6-20.6l-6.2-5.8,4.9.7c5.4.8,8.4,2.1,8.4,3.5,0,.6.7,1,1.5,1a1.655,1.655,0,0,0,1.5-1.7c0-1.3.8-.9,3.3,1.5,3.8,3.7,4.7,3.9,4.7,1.3,0-2.8,1.7-3.5,2.5-1.1.7,2.2,2.5,2.8,2.5.8,0-.6,1.1-.1,2.5,1.2s2.5,3.2,2.5,4.3c0,1,.5,1.7,1.3,1.5,1.9-.7,2.1-10.2.1-14.3-4.2-8.9-14.9-14.1-27.3-13.3a51.062,51.062,0,0,0-8.6,1.3c-1.8.7-1.7.5.4-1.8,1.4-1.5,3.2-2.7,4.2-2.7,2.1,0,3.8-2.2,2.1-2.8-2.2-.7-1.2-2,2.2-3.2,2.4-.8,3.3-1.6,2.9-2.6-.3-1,.4-1.6,2.5-2,1.9-.4,3.2-1.4,3.6-2.6.5-2.1,2.4-2.2,8.1-.3,1.2.4.4-.9-2.2-3.3-10-9.3-27.6-6-34,6.3l-1.6,2.9-1.9-5.1c-5-13.6-20.1-20.1-32.6-14.1l-4.7,2.2,4.7.4c2.5.2,5.2,1,5.8,1.8a4.8,4.8,0,0,0,2.6,1.4,1.266,1.266,0,0,1,1.4,1.1c0,.7-1.1.9-3,.6-4.2-.9-2.9,1.8,1.6,3.3,3.5,1.2,4.6,3,1.9,3-2.6,0-1.6,1.6,2.1,3.3,1.9,1,3.3,2.1,2.9,2.6-.3.5.6,1.8,2,2.9,3.8,3,3,3.5-1.8,1-3.6-2-5.7-2.3-14.2-2.3-9.2,0-10.3.2-14,2.7-6.1,4.1-9.4,11.4-7.9,17.4.8,3.1,1.5,3,3.6-.6,1.8-3.2,3.8-4,3.8-1.5,0,2.1,1,1.9,3.7-.7,2-1.8,2.3-1.9,2.3-.5,0,2.2,2.4,2.2,5.6,0,1.9-1.2,2.8-1.3,3.3-.4.4.6,2.1,1.1,3.7.9a38.76,38.76,0,0,1,5.9.1c2.6.2,2.1.5-3.5,2.6-16,5.9-23.9,23.6-14.5,32.5l2.5,2.3v-3.9c0-4.8,1.5-7.8,2.6-5.1.9,2.5,2,2.1,4.3-1.8,1.1-1.9,2.7-3.5,3.5-3.5a2.64,2.64,0,0,0,2.1-2.1c.6-1.9.8-1.9,2.4-.5s1.8,1.3,3-2c.9-2.5,1.7-3.3,2.9-3,1.1.4,2.7-.6,4.5-2.9,1.5-1.9,3.2-3.5,3.6-3.5.5,0-1.3,6.6-3.9,14.7-2.5,8.2-5.9,20.7-7.5,28-2.7,13-2.8,13.2-4.9,11.8-1.4-1-4.7-1.5-10.5-1.5-8.2,0-8.5-.1-13.3-3.8a29.388,29.388,0,0,0-9.6-4.7l-4.7-1-1.2-8.5a326.659,326.659,0,0,1,5.2-116.9c12.4-55.6,39.7-107.9,79.4-152.1,39.6-44.1,92.1-78.2,150.8-97.9a333.1,333.1,0,0,1,73.8-16c6.1-.6,12.4-1.3,14-1.5C498.4-894.2,531.4-893.9,542.5-893ZM787.2-544.1c-12.9,10.3-14.9,28.3-3.8,35.9,4.3,3,5,2.8,3.1-.9-2-3.9-1.6-7.5.8-7.1,1.1.2,1.7-.4,1.7-1.6,0-3.4,2.3-6.8,4.4-6.4,1.4.3,1.7,0,1.2-1.3-.3-1,.2-3.5,1.1-5.6,1.7-3.7,3.3-5.1,3.3-2.9,0,.5.7,1,1.5,1,1.1,0,1.3-.7.9-2.9-.6-3,2.3-9,3.5-7.4,1.1,1.3,4.9,11.3,7,18.3,2.5,8.4,3.9,15.1,5.6,27.4l1.4,10-3.6,4c-4.9,5.5-5.8,5.9-12.3,5.7-8.3-.3-15.3,2.7-22.4,9.5-6.6,6.2-9.2,7.6-14.5,7.3a28.957,28.957,0,0,0-6.7.5l-3.2.7-.7-7.8c-.8-9.7-3.1-21-5.1-25.9-.8-2-1.3-3.8-1.1-4.1.3-.2,2.1.2,4,1,2.2,1,3.8,1.2,4.4.6s1.5-.4,2.3.6a4.215,4.215,0,0,0,2.5,1.5,2.539,2.539,0,0,1,1.9,1.5,1.554,1.554,0,0,0,2,.9c1.8-.7,3.8,2.8,3,5.3-.6,1.5-.3,1.4,1.7-.5,1.8-1.7,2.4-3.3,2.4-6.5,0-7.4-6-13.3-15-14.7l-4-.6,4.5-1.3a56.045,56.045,0,0,0,6.8-2.4c1.8-.9,2.8-.6,5.2,1.1a15.9,15.9,0,0,0,3.5,2.2c1.5,0-4-7.9-6.2-8.9-3-1.4-10.3-1.4-13.9,0-2.8,1-2.8,1-.9-1,1-1.2,1.4-2.1.9-2.1s-.2-.6.7-1.3a9.321,9.321,0,0,0,2.2-3c.4-1.2,1.7-1.7,4.2-1.7,4.2,0,4.6-1.6.8-3.2-1.6-.7-2.9-1.3-3.1-1.4-.6-.4,2.6-7.2,3.8-7.9a1.408,1.408,0,0,1,2,.6c.6,1,1.2.6,2.1-1.4,1.4-3.1,2.1-3.3,4-1.1,1.1,1.4,1.4,1.3,2.7-1.1,1.1-2.2,1.6-2.4,2.8-1.4s1.9.8,3.9-1.1c1.3-1.2,2.8-1.9,3.4-1.6a3.2,3.2,0,0,0,2.8-.3,8.33,8.33,0,0,1,3.6-1.1C791.6-548,790.5-546.7,787.2-544.1ZM389.6-431.6c14.2,1.5,45.2,7,46.4,8.2.3.4-8.8.3-20.1-.1q-20.7-.75-22.5.3c-1.7,1-1.7,1.1.6,1.6,1.4.2,6.8,1,12,1.5,5.2.6,13.6,1.5,18.5,2.1,5,.5,20.5,1.7,34.5,2.6,36.3,2.3,37.4,3.2,3.8,3.3-15.9.1-28.8.5-28.8,1,0,2-4.2,1.7-9.1-.6-4.6-2.2-6-2.4-12.3-1.9-6.6.7-7.4.5-10.5-1.8-1.9-1.5-4.5-2.6-5.7-2.6-1.4,0-3.4-1.5-5.4-4-3.6-4.6-6.8-5.7-11-4-2.8,1.2-3.3,1-7.4-2.4a38.418,38.418,0,0,0-6.8-4.6C363-434.2,367.1-434,389.6-431.6Zm-8.1,8.6a2.335,2.335,0,0,1-1.6,1c-.6,0-.7-.5-.4-1a2.04,2.04,0,0,1,1.6-1C381.7-424,381.8-423.6,381.5-423ZM782-421.5c-3.3,1.9-5,1.8-2.6,0a7.844,7.844,0,0,1,3.5-1.5Q784.4-422.85,782-421.5Zm-48.7.1c.3.4-.3,1.8-1.3,3.2a8.786,8.786,0,0,0-2,4.6,8.377,8.377,0,0,1-1,3.6c-.9,1.3-1.2,1.3-2.3-.1a2.457,2.457,0,0,0-2.6-1.1c-2.2.7-.4-4.8,2.7-8.1C729.3-421.9,731.9-422.7,733.3-421.4Zm33.3,3.9a8.565,8.565,0,0,1-4.2,1.5,25.168,25.168,0,0,0-6.9,2c-4.9,2.1-8.5,2.6-8.5,1.1,0-.5.8-1.2,1.8-1.6,3.4-1.5,14.7-4.3,17.2-4.4C768.4-418.9,768.4-418.9,766.6-417.5Zm5.9.5a2.736,2.736,0,0,1-2.3.9c-1.4,0-1.3-.2.3-.9C773.2-418.1,773.2-418.1,772.5-417Zm-507.8,3.6a2.026,2.026,0,0,1-1.9.1c-.8-.3-.5-.6.6-.6C264.5-414,265.1-413.7,264.7-413.4Zm29.3.4c0,.5-.7,1-1.6,1-.8,0-1.2-.5-.9-1a1.9,1.9,0,0,1,1.6-1A.923.923,0,0,1,294-413Zm-23.7.7a7.556,7.556,0,0,1-3,0c-1-.3-.4-.5,1.2-.5C270.2-412.8,270.9-412.6,270.3-412.3Zm111.4,6.9a2.026,2.026,0,0,1-1.9.1c-.8-.3-.5-.6.6-.6C381.5-406,382.1-405.7,381.7-405.4Zm342.2,3.8c1.3,1.6.5,2.4-5.4,5.3a11.579,11.579,0,0,1-6.5,1.4c-2.3-.6-2-.9,3.5-4.4C722.2-403.5,722.3-403.5,723.9-401.6Zm-42.4,49.5c-2.2,2.1-11.7,6.2-13.7,5.9-1.5-.2.1-1.3,5.3-3.5C680.9-353,683-353.6,681.5-352.1Zm-21.4,1.8,3.4,1.8-3.5.3a42.72,42.72,0,0,0-7,1.2c-2.6.8-4.6.7-8-.4l-4.5-1.5h4.6a26.376,26.376,0,0,0,8-1.6c1.9-.8,3.4-1.4,3.5-1.5C656.6-352,658.2-351.2,660.1-350.3ZM637-342.1c0,.9-4.1,2.3-4.9,1.6-.3-.4,2.8-2,4.7-2.4C636.9-343,637-342.6,637-342.1Zm-147,95,3.5.8-4.6.7c-5,.8-18.1-.8-20.8-2.5C466.3-249.2,484-248.4,490-247.1Z"/>
      <path id="Trazado_39931" data-name="Trazado 39931" d="M525.5-808.3c-.9,1-2.7,3.3-4.1,5-2.3,2.9-2.4,3.3-.7,3.3,1,0,2.4-1.4,3.3-3.3,1.5-3.1,6-5.2,6-2.7,0,.6-.4.9-.9.5a1.216,1.216,0,0,0-1.6.5c-.3.5.2,1,1.1,1,1.4,0,1.2.6-1.2,3.2-1.6,1.7-2.3,2.8-1.6,2.4,1.9-1.1,1.4.4-.8,2.8-1.1,1.2-3.4,3.7-5,5.6-2.9,3.4-2.9,3.4-3,1a16.084,16.084,0,0,1,1.4-5.3c.8-1.5,1.1-2.7.7-2.7s-1.6,1.7-2.5,3.8c-1.5,3.3-1.6,4.7-.6,10,1.1,6,1,6.1-2.1,10.4-1.7,2.4-4.5,6.5-6.3,9.2-1.7,2.7-4,5.4-5.1,6a62.491,62.491,0,0,0-6.7,5.1c-2.6,2.2-7.1,6-10.1,8.5-4.5,3.7-6.4,6.3-10.7,15-6.4,12.9-8.5,17.4-10.4,22.3-1.5,3.8-8.3,13.2-14.1,19.5-3.8,4.2-9.9,7.5-14.5,7.8a55.848,55.848,0,0,0-11.2,2.9c-6.8,2.3-8.3,3.3-12.6,8.3a228.433,228.433,0,0,0-17.5,25.7,63.944,63.944,0,0,1-5.6,7.9c-2.3,2.6-4.1,5.2-4.1,5.7,0,2.3-8.9,10.3-14,12.6-5.5,2.4-11,6.8-11,8.7,0,.5,1.3-.2,2.8-1.7,2.9-2.7,5.2-3.5,5.2-1.7a.987.987,0,0,1-.9,1c-.5,0-1.8,1.5-3,3.2-1.2,1.8-3.9,5.5-6.1,8.3-2.2,2.7-4,5.8-4,6.7a3.214,3.214,0,0,1-1.1,2.4c-.8.4-.9,0-.4-1.5,1.4-4.5-.6-1.8-3.8,5.2-4.9,10.6-15.5,21.7-33,34.4-3,2.2-6.4,2.1-3.6-.1a2.92,2.92,0,0,0,1.1-2.7c-.2-1,1-2.6,2.8-3.9,6.9-4.9,23.2-22.4,26-27.9,1.6-3.1,5.9-8.6,9.6-12.4,3.8-3.7,6.5-6.7,6.2-6.7-.4,0-3.5,2.2-6.9,5-3.7,2.9-7.6,5.2-9.8,5.6-7.2,1.3-15.7,6.3-27.1,15.9-6.3,5.3-12.7,10.3-14.1,11-3.5,1.9-5.7,4.5-3.7,4.5,2.3,0,12.5-7.1,21.3-14.7,7.9-6.9,12.2-9.9,13.1-9,.3.2-1.2,1.7-3.3,3.3a26.59,26.59,0,0,0-4.6,4c-.6,1-10.8,9.2-17.8,14.3-2.3,1.7-2.4,3.1-.2,3.1,1.5,0,1.5.1,0,1.8a5.828,5.828,0,0,0-1.7,3,2.675,2.675,0,0,1-1.3,1.9c-1.3.7-3,5.3-2.1,5.3a9.623,9.623,0,0,0,2.7-1.4,17.174,17.174,0,0,1,4.4-2c2.1-.7,2.1-.5,1,2.5a12.184,12.184,0,0,1-4.2,5.1c-2.5,1.5-2.7,1.8-.9,1.8a5.037,5.037,0,0,0,3.2-1.2c.7-.7,1.2-.9,1.2-.5s3.1-.9,7-2.8c8-4,8.2-4.1,7.3-1.9-.5,1.3-.2,1.5,1.8.9a13.229,13.229,0,0,0,4.2-2.3c1.4-1.2,1.7-1.3,1.7-.1.1.8.9.3,2.3-1.3,1.2-1.4,6-4.6,10.7-6.9a59.038,59.038,0,0,0,13.5-9.4c6.7-6.7,13.9-18.6,17.1-28.2,6.1-18.1,7.1-20.2,14.9-30.3,1.9-2.5,4.9-6.5,6.7-8.9s4.5-5.8,5.9-7.5A31.8,31.8,0,0,0,404-651c1.5-3.9,3.1-6.3,3.7-5.6.3.2-.3,1.9-1.2,3.7a18.549,18.549,0,0,0-2,5.5,6.844,6.844,0,0,1-1.9,3.9c-2,2.1-2.2,4.2-.2,2.6,1.2-1,1.3-.8.9.9a5.347,5.347,0,0,1-2.3,3,5.244,5.244,0,0,0-2.4,2.7c-.6,1.5-.5,1.5,1.4-.2,1.5-1.3,2-1.5,2-.4-.1,1.9-2.3,5.7-3.5,6-2.2.4-10.5,11.1-10.5,13.5,0,1.4-.4,2.3-.9,1.9-1-.6-6.4,8.3-7.6,12.5a15.105,15.105,0,0,1-2.6,4.6,6.68,6.68,0,0,0-1.7,4.5c.2,2.9-3.5,9.5-6.9,12.2-1.3,1-2.1,2.3-1.7,2.8.7,1.3-5.2,8.1-11,12.5-3.7,2.8-4.5,3.9-3.5,4.6s.6.8-1.2.4c-1.9-.4-3.2.1-5,2s-2.9,2.3-5,1.9c-2.3-.5-3.5.1-6.8,3.4-2.3,2.3-5.1,4.1-6.3,4.1-2.9.1-11,4.2-11.6,5.9-.3,1,.2.9,2.4-.2a38.4,38.4,0,0,1,5.4-2.2c2.3-.7,2.4-.7,1,1-1.3,1.5-1.3,1.9-.1,2.3,1,.3.8,1-1,2.3l-2.4,1.9,4.5-.6c7.5-1,26-6.1,39.6-10.9,29.8-10.5,57.1-26.2,72.5-41.6,7.4-7.3,9.4-10.2,14.1-19.5,3-6,6-13.6,6.7-16.9a43.3,43.3,0,0,1,2.9-9c2.1-4.1,6.2-17.5,6.2-20.3,0-1.2,1.5-5.3,3.4-9,5.1-10.1,5.9-14.2,5.7-28.4-.2-11.6,0-13,2.2-17.5,2.7-5.2,5.1-13.7,6.6-23.4,1.1-6.3,4.9-12.9,7.6-12.9.7,0,2.8-1.2,4.5-2.6,3.4-2.9,5.3-2.5,2.7.4a5.82,5.82,0,0,0-1.7,3.3c0,.7-2.5,6.5-5.6,12.7-5.1,10.3-5.6,11.9-5.5,17.4.1,3.4-.8,11.1-2,17.2s-2.7,15.1-3.4,20.1c-1.2,8-10,36.4-14,45.2A15.673,15.673,0,0,0,467-629a9.682,9.682,0,0,1-2,3.7,9.326,9.326,0,0,0-2,4.4,2.9,2.9,0,0,1-.9,2.3,22.455,22.455,0,0,0-2.6,5.3,33.119,33.119,0,0,1-3.3,6.6,9.43,9.43,0,0,0-1.6,5.2,10.412,10.412,0,0,1-2.6,6.1c-1.9,2-2.1,2.6-.7,2.1,3-1.1,1.9,1.1-2.3,4.4-2.2,1.8-4,3.6-4,4.1,0,1.5,9.9-4.2,11.1-6.4,2.1-3.9,10.1-11.8,12-11.8a4.736,4.736,0,0,0,3.2-2c3.1-4.4,9.9-11,10.8-10.5,1.3.9,1.1,2.1-.7,3.9-.9.9-1.1,1.6-.4,1.6.6,0-.3,2-2,4.5s-3.7,4.5-4.5,4.5c-1.8,0-12.5,10.2-12.5,11.9,0,1,.6,1,2.5-.3a9.067,9.067,0,0,1,3.7-1.6c1.6,0-7,8.8-10.4,10.6-1.6.8-2.8,2-2.8,2.8,0,.7-2.7,3.5-6,6.1a57,57,0,0,0-6,5.1c0,1,19.9-8.1,25.1-11.5,7.2-4.7,19.4-14.7,28.4-23.5a100.093,100.093,0,0,1,10.5-8.9c2.5-1.7,7.2-5.2,10.5-7.8,9.4-7.3,21-12.9,23.5-11.4.6.4,2.9.6,5.3.7,3.8,0,9.7,2.1,9.7,3.4,0,.3-1.4.3-3.1-.1-4.1-.9-16.1,1.5-15.5,3.1.3.7-1.8,2.1-5.5,3.4-6.6,2.5-7.6,4-2.6,4,3.1.1,3.1.1,1.2,1.6-2,1.6-2,1.6.2.9,3-.9,4.8.2,3.3,2.1a6.612,6.612,0,0,1-4.4,1.2c-2.4-.1-5,1.1-9.4,4.2-6.7,4.8-7.6,6-3.7,5.2,2.8-.5,3.3.9.9,2.9a9.652,9.652,0,0,0-2.5,3.6c-1.1,2.8-2.9,3-3.6.3-.3-1.1-1-2-1.5-2-1.8,0-11.8,10.3-11.6,11.9.2,1.1-.6,1.7-2.9,1.9-2.1.2-4.9,1.8-8,4.6a45.815,45.815,0,0,1-8,6A11.4,11.4,0,0,0,475-567c-1.3,2.4-.7,2.5,2.6.4,2.4-1.6,4.1-1.4,3,.4-1.3,2.1-13,9.3-14.3,8.8-.8-.4-3.4,1.3-6.2,3.9-2.6,2.5-5.3,4.5-5.9,4.5s-1.3.9-1.7,2c-.3,1-3,3-5.8,4.4-2.9,1.3-6.1,3.4-7.2,4.7l-2,2.2,2.3-.7c1.6-.6,2.2-.3,2.2.8,0,.9-.2,1.6-.4,1.6a38.175,38.175,0,0,0-4.1,1.6c-3.5,1.4-3.7,1.4-3.1-.1.7-1.9.3-1.7-7.6,3.8-4,2.8-6.4,3.8-7.9,3.4-2.7-.7-9.8,3.3-13.3,7.4-2.9,3.5-3.6,3.6-2.9.8l.6-2.2-2.9,2.1a27.287,27.287,0,0,1-7.1,3.2c-4.4,1.1-6.2,3.2-2,2.3,2.1-.4,2.2-.4.3,1.1a10.374,10.374,0,0,1-5,1.8c-1.7.1-4.2.3-5.6.3a125.229,125.229,0,0,0-14.5,2.3l-3,.6,3.3.6c3.9.6,4.3,2,1.1,3.8-3.9,2.1,11.1.4,21.3-2.4s16.8-3.2,16.8-.9c0,.8.5,1.5,1,1.5.6,0,1-.8.8-1.7-.2-1.2.6-1.9,2.8-2.3a19.349,19.349,0,0,0,5.5-2.3,8.461,8.461,0,0,1,4.2-1.7c1.6,0,1.7.3.7,1.5-1.1,1.3-.7,1.5,2.3,1.5,2.8,0,3.5-.3,3.1-1.5-.7-1.8,4.2-6.5,7-6.5,2-.1,2-.1.3-1.1-1.4-.8-2.2-.8-3,0-1.4,1.4-3.7,1.4-3.7.1,0-.6.9-1,2-1a2.87,2.87,0,0,0,2.6-1.4c.7-1.8,11.7-5.8,13.7-5,2,.7,20.9-5.5,20.1-6.7a2.533,2.533,0,0,0-2-.9c-1.9,0-1.8-1.4.4-3.2,3.5-3.2,15.3-9,17.2-8.5,1,.3,2,.2,2.2-.2.4-.9,11.3-8.3,15.5-10.5,4.5-2.3,5.6-2.1,4.9.9-.6,2.2-.3,2.5,1.9,2.5,2.3,0,2.5-.4,2.5-4.1,0-3.8.7-4.9,6.8-11.3a112.618,112.618,0,0,0,9.6-11.6c2.8-4.3,12.7-14.2,13.4-13.5.5.5-8.4,12.8-13,18-2.1,2.3-3.8,4.9-3.8,5.8s-1.6,2.8-3.5,4.3c-2,1.5-3.4,2.9-3.1,3.1,1,1.1,10.6-5,12.3-7.7a8.084,8.084,0,0,1,4.3-3.6c3.5-.8,8.8-3.3,9.5-4.4,1.1-1.8,9.9-5.7,11.8-5.2a4.737,4.737,0,0,0,3.5-1.1c1.4-1.3,9.2-2.3,14-1.8,2.8.2-.1,2-4.3,2.7-2.6.3-4.5,1.2-4.5,1.9,0,1.4-2.2,2.5-5.1,2.5-2.7,0-10.8,6.2-10.4,8,.3.9-2.1,3.2-6.5,6.2-5.2,3.7-6.7,5.2-6.3,6.7.3,1.4-.8,2.8-4.2,5.4-2.5,2-4.5,3.9-4.4,4.4.2.4-1.5,1.8-3.7,3.1-3,1.8-4.9,2.2-8.6,1.8-3.4-.4-5-.1-5.9,1a15.918,15.918,0,0,1-4.3,3.1,13.508,13.508,0,0,0-4.1,3c-.6.8-6,3.4-12,5.8-6.1,2.5-10.5,4.5-10,4.6.6,0,1.9.2,3,.3,1.1,0,1.9.7,1.7,1.3-.1.8.9,1.4,2.3,1.4,3.3.2,3.8.3,5.1,1.1,1.8,1.2,6.9-2.2,14.8-9.9,6.3-6.1,8.2-7.3,12.8-8.3,9.9-2.2,19.8-.4,33.3,6.1,2.2,1,1.1.9-11.4-1.1-6.3-1-9.2-.7-5.5.6a15.148,15.148,0,0,1,3.6,2.2,3.557,3.557,0,0,0,3.3.8c.9-.3,1.4-.2,1.1.3-.3.4,1.2,1.7,3.3,2.9s4.5,2.9,5.2,3.9c1.2,1.5,1.2,1.6-.6,1.1-1.1-.4-5.8-2.2-10.5-4.2-10.9-4.7-12.6-4.6-7,.4,5.1,4.4,3.6,5.3-2.5,1.5-4.5-2.7-8.5-3.3-8.5-1.1,0,.8-1.4,1.9-3.2,2.5a15.727,15.727,0,0,0-4.7,2.5,12.269,12.269,0,0,1-4.6,2,13.752,13.752,0,0,0-4.7,2.3c-2.4,2.1-10.5,3.5-12.9,2.3a3.719,3.719,0,0,1-1.9-2.5c0-.8-.4-1.5-1-1.5-.5,0-1,1.5-1,3.4,0,3.5-1.3,4.6-5.1,4.6-1,0-1.9-.5-1.9-1,0-1.5-2.7-1.2-3.3.4-.3.8-2.2,1.8-4.3,2.2a49.838,49.838,0,0,0-10.2,4.1,87.355,87.355,0,0,1-16.7,5.8,116.168,116.168,0,0,0-11.6,3c-2.1.8-3.3-.9-1.6-2.2,1.6-1.2,8.8-3.3,11.8-3.4h2.4l-2.3-1c-3.4-1.3-2.2-2.2,6.3-4.9l7.5-2.4-4.1-1.4a24.361,24.361,0,0,0-14.4.2c-1.6.6-1.7.6-.5-.3,1.3-.9,1.1-1.1-.7-1.1a14.408,14.408,0,0,0-3.8.6c-1.3.5-1.4.9-.3,1.5,1.9,1.3.1,2.2-7.4,3.8-6.6,1.3-13.6,3.8-15.3,5.4-1.3,1.3,20.2-.1,22.7-1.4a8.466,8.466,0,0,1,4.6-.7c2.1.2,1.1.8-4.3,2.5-3.8,1.3-8.8,2.7-11,3.3l-4,1,4.7-.4c5.5-.4,6.4.1,4.2,2.5-1.5,1.7-1.5,1.8.8,2.4,1.4.4,5.4.5,8.9.3,7.8-.4,8.8,1.1,2.3,3.4l-4.9,1.7,4.2.1c2.4,0,4.5.6,5,1.3.5.8,4.5,1.9,9.3,2.6,21.9,3.2,29.9,4.7,30.7,5.5,1,1-17.9,0-29.2-1.7a127.829,127.829,0,0,0-14.1-1.1c-3.3-.1-6.7-.6-7.5-1.2-2-1.6-8.2-2.7-16.4-2.9-8.6-.3-15.5-1.5-15.5-2.7,0-.5-1.3-.7-2.8-.3-2,.4-3.3.1-4.2-1-1.7-2-3.6-1.9-5.9.4-2.1,2.1-6.9,3.3-7.4,1.8-.3-1-6,2.3-8.2,4.9-.7.8-3.7.7-11.5-.2-10.2-1.2-10.5-1.2-12.3.9-1.5,1.7-2.2,1.9-3.6,1-1.3-.8-3.5-.8-8.2.1-5.6,1-6.4,1.4-6.3,3.4,0,1.4-.5,2.2-1.6,2.2a4.707,4.707,0,0,0-3.1,1.6,3.589,3.589,0,0,1-3.5,1c-3.3-.9-5.4.3-5.4,2.9,0,2.2.4,2.3,9.3,2.9,40.1,2.5,212.1,5.6,213.9,3.8.7-.7-.5-1.2-3.8-1.7-2.7-.4-7.3-1.1-10.3-1.6a70.477,70.477,0,0,0-9.3-.9c-2.1,0-3.8-.5-3.8-1,0-.7,15.1-1,43.3-1,64.9,0,168.7-2.8,168.7-4.5,0-.2-1.8-3.9-4.1-8.4-4-8-5.4-9.2-7.7-6.9-1.4,1.4-4.2-.6-4.2-3.3,0-2.9-2.8-4.9-7-4.9-2.8,0-3.9-.5-4.2-1.8-.4-1.3-2.2-2.3-5.4-3.1-3-.8-5.7-2.2-6.9-3.7l-2-2.5-4.8,2c-5.1,2.2-7.7,2.6-7.8,1.3,0-.4-.2-2.6-.4-4.9l-.5-4.1,5.8.1a65.1,65.1,0,0,0,11.5-1.2c6.1-1.3,7-2.8,4.6-7.3-1-1.8-.8-2.4,1.2-3.9,2.7-2.1,8-2.5,11-.8a5.019,5.019,0,0,0,3.2.6c1.1-.5-9.5-5.8-11.1-5.6-2.5.4-5.2-.3-4.7-1.1.3-.6,1.7-.7,3-.4s2.6,0,3-.6c.6-.9.9-.9,1.5,0,.7,1.2,21,2.4,21,1.3a19.537,19.537,0,0,0-1.7-3.4c-2.9-4.9-1.1-5.5,11.5-4.1,10.6,1.1,16.7.6,21.3-1.9,3-1.5,2.3-3.9-1-3.9-2.1,0-3.2-.6-3.6-2.1-.4-1.1-2.3-2.7-4.3-3.6-2.1-.8-5-2.1-6.7-2.8a28.079,28.079,0,0,0-7.5-2c-6.4-.9-8.1-1.5-7.5-2.6.4-.5,3.3-.9,6.5-.9,3.3,0,7-.5,8.3-1.1,1.7-.7,3.1-.8,4.3-.1a12.153,12.153,0,0,0,5.9.3l4-.7-3.5-.7c-1.9-.3-5.8-1-8.7-1.5-5.1-.8-8.7-2.7-7.8-4.2.3-.4,3.5,0,7.2,1,3.8.9,11.2,2.6,16.6,3.6l9.7,1.8,8-3.9c4.4-2.2,7.9-4.4,7.7-5-.2-.5-3.6-2.6-7.5-4.5-5.5-2.6-7.2-3.9-7.2-5.5a5.116,5.116,0,0,1,1.1-3.2c1.3-1.3-3.8-3.9-17.1-9-3.6-1.3-10-5-14.3-8.1-8.1-5.9-16.7-11.1-22.7-13.7-8.1-3.5-10.7-5.3-17-11.5-9.2-9.1-18.1-20.5-22.3-28.6a28.106,28.106,0,0,0-4.8-6.2c-3.1-3-3.8-3.2-10.3-3.2-4.3-.1-8.1-.6-9.6-1.5-3.6-2.1-6.4-1.8-12,1-6,3-7,3.1-12.2.4-4.6-2.3-25.9-23.3-29.5-28.9-6.6-10.5-12.2-23.6-12.3-29-.1-4.3-3.6-10.3-10-16.9-9.7-10.2-11.2-13.5-14.5-31.8-.7-4-2.3-8.9-3.5-10.8-2.5-4.1-7.9-8.5-10.3-8.5-1.3,0-1.7-1-1.7-4.5C540-804.3,531-814.6,525.5-808.3Zm5.6,26.9c-1.1,1.5-2.1,3.2-2.1,3.9a6.149,6.149,0,0,1-2,3c-1.1,1-2,2.3-2,3a5.523,5.523,0,0,1-1.9,2.9c-1.1,1-1.7,2.4-1.4,3.2a3.264,3.264,0,0,1-.6,2.8c-.6.7-.8,1.5-.5,1.9.3.3.1,1.4-.5,2.6-.8,1.4-.8,2.2,0,2.6.7.5.5,1.5-.6,3.2-1.6,2.4-1.6,2.4.4,1.4a12.416,12.416,0,0,1,2.4-1.1c.7,0-2.1,7.7-4,11.4-1.9,3.5-2.2,15.3-.8,33.7.6,8.1.5,10.8-.5,11.4a1.456,1.456,0,0,1-2-.5c-1.5-2.4-3,2.6-3,9.7a132.463,132.463,0,0,1-1.1,13.8c-.6,3.8-1.2,10.4-1.4,14.5a64.3,64.3,0,0,1-1.3,10.7c-.7,2.1-.7,3.5-.1,3.9s.4,1.5-.5,2.8a46.479,46.479,0,0,0-2.9,5.9c-1.3,3-1.3,3.5-.1,3,1.9-.7,1.8,1.1-.2,2.8-2.5,2.1-4.8,7.1-3.5,7.8.7.5.2,1.5-1.4,2.9L497-616v-2.8c0-1.5,1-7.7,2.1-13.7,1.1-6.1,2.2-13.3,2.3-16a142.875,142.875,0,0,1,2.4-14.5c1.1-5.2,2.6-14.9,3.2-21.5s1.7-15.3,2.4-19.3c.6-3.9.9-7.2.5-7.2-1.3,0-3.5,4.6-5.3,11-4.1,14.5-6.8,20.6-11.7,26.9a8.952,8.952,0,0,0-1.9,3.6c0,.7-1.1,2.8-2.4,4.8-2.2,3.2-7.9,17.7-9.3,23.4-.3,1.3-.9,2.3-1.3,2.3s-1,1.7-1.4,3.7c-.7,4.1-2.2,7.1-3.1,6.2-1.7-1.7,5.4-33.4,8.4-37.6a44.31,44.31,0,0,0,4.2-8.7c1.2-3.2,3-6.7,4-7.7,2.7-2.7,9.9-17.9,9.8-20.9a53.783,53.783,0,0,1,2.1-10c1.3-4.8,2-9.3,1.7-12.5-.4-5.4,1.5-18.9,3.8-27a18.773,18.773,0,0,1,4.4-7.9,24.768,24.768,0,0,0,4.8-7.5,43.311,43.311,0,0,1,3-6.6c1.4-2.2,12.4-9.7,13.1-9C533-784.3,532.3-782.9,531.1-781.4ZM478-725.6a20.1,20.1,0,0,0-1,5,5.4,5.4,0,0,1-1.5,3.6,5.3,5.3,0,0,0-1.4,3.9c0,3.7-2.4,17.1-3.2,17.1-.4,0-1.2-.7-1.9-1.5-2.4-2.9-.7-11.3,4.4-21.9,2.6-5.4,4.9-9.6,5.2-9.4A5.8,5.8,0,0,1,478-725.6Zm13,13.1c0,1.4-.4,2.5-.9,2.5-.4,0-.6-1.1-.3-2.5.2-1.4.6-2.5.8-2.5S491-713.9,491-712.5Zm1.6,16.2c-.8,1.5-1.5,2.2-1.6,1.5,0-1.7,2-5.5,2.7-4.9C493.9-699.4,493.5-697.9,492.6-696.3ZM490-687c-1.7,3.2-2.2,1.8-.8-2.1.8-2.2,1.3-2.8,1.6-1.7A6.886,6.886,0,0,1,490-687Zm32.7,7.2c-.3.8-.6.5-.6-.6-.1-1.1.2-1.7.5-1.3A2.026,2.026,0,0,1,522.7-679.8Zm14.3-.7c0,.8-.4,1.5-1,1.5-.5,0-1-.7-1-1.5s.5-1.5,1-1.5C536.6-682,537-681.3,537-680.5Zm-12,21.1c-2.1,3.8-3,1-2.6-7.6.6-11.6,1.9-13.1,3-3.2C526.1-663.8,526-661.3,525-659.4Zm-99.6-11c.3.8-.8,5.8-2.5,11s-2.8,10.2-2.5,11.1a3.521,3.521,0,0,1-.7,3.2c-.8.9-1.9,3.7-2.5,6.3-.7,2.7-1.7,6.7-2.3,9.1a22.581,22.581,0,0,0-.9,5.2,6.816,6.816,0,0,1,.1,2.5c-.3,2.9-2.1-1.3-2.1-4.8,0-2-.4-3.1-1-2.7-1.1.7-.6-6.3,1.1-16.4a88.549,88.549,0,0,0,.9-11.9c0-6.3.1-6.6,4.2-10.4C421.6-672.2,424.4-673,425.4-670.4Zm85.7,32.7c-2.5,2.5-3.1,2.8-3.1,1.4,0-2.4,5.2-7.6,5.8-5.8C514-641.4,512.8-639.4,511.1-637.7Zm-95.6,25.1c-.9,3.1-1.8,5.6-2.1,5.6-.6,0,.8-9.3,1.9-12C417.1-623.5,417.3-618.7,415.5-612.6Zm58-5.2c-1.1,4-4.9,11.1-5.3,9.9-.5-1.6,3.8-12.1,5-12.1C473.7-620,473.9-619,473.5-617.8Zm-79.5.2c0,1.6-1.8,3.1-2.7,2.2-.8-.8.5-3.6,1.7-3.6C393.5-619,394-618.4,394-617.6Zm104,3c0,.3-.4.8-1,1.1-.5.3-1,.1-1-.4a1.1,1.1,0,0,1,1-1.1C497.6-615,498-614.8,498-614.6Zm-111,4.3c0,2.2-1.7,5-2.5,4.2-.6-.7,1.1-5.9,2-5.9C386.8-612,387-611.2,387-610.3Zm19.4,3.8c-.4.8-.8,1.5-1,1.5s-.4-.7-.4-1.5.4-1.5,1-1.5C406.5-608,406.7-607.3,406.4-606.5Zm-12.2,1.7c-.7.7-1.2.8-1.2.2,0-1.4,1.2-2.6,1.9-1.9C395.1-606.2,394.8-605.4,394.2-604.8ZM533-603c0,.5-.2,1-.4,1-.3,0-.8-.5-1.1-1-.3-.6-.1-1,.4-1A1.028,1.028,0,0,1,533-603Zm-9,2.5a4.313,4.313,0,0,1-2.4,1.5c-.6,0-.2-.7.8-1.5C524.9-602.4,525.6-602.4,524-600.5ZM387.2-581.3a26.809,26.809,0,0,0-2.6,5c-.7,2.2-7.6,8.6-8.4,7.8-.3-.2,1.5-2.6,3.8-5.2a39.5,39.5,0,0,0,5.3-7.3c1.2-2.5,2.8-4.2,3.5-3.5C389-584.3,388.3-582.9,387.2-581.3ZM682.5-576c.3.5.2,1-.4,1a2.335,2.335,0,0,1-1.6-1c-.3-.6-.2-1,.4-1A2.039,2.039,0,0,1,682.5-576Zm16.9.9a1.2,1.2,0,0,1,0,1.4c-.8.7-4.4-.4-4.4-1.4C695-576.3,698.7-576.3,699.4-575.1Zm.6,5.8c1.4.8,1.7,1.2.7.9a13.94,13.94,0,0,0-3.1-.6,6.765,6.765,0,0,1-3.2-1.6c-1.8-1.4-1.8-1.5.6-.8A21.334,21.334,0,0,1,700-569.3Zm20,6.8c2.1,1.2,2.3,1.4.8,2-2.6,1-5.2.2-5.6-1.8S716.6-564.4,720-562.5Zm-240.7,4.2c-.4,2.7-1.3,3.5-7,6.2-4,2-6.7,3.9-7,5.1a4.152,4.152,0,0,1-3.2,2.6,42.356,42.356,0,0,0-6.6,2.4c-6.1,2.9-6.1.8,0-3.3,1.8-1.2,6-4.1,9.4-6.5s6.7-4.2,7.4-4.1c2.7.3,3.7-.2,3.7-2.1a4.03,4.03,0,0,1,1.7-2.9C479.9-562.1,479.9-562.2,479.3-558.3ZM730.1-561c.6,0,.7.4.4,1-.8,1.3-5.2,1.3-5.9.1-.7-1.1,1.4-2.1,3.2-1.5A12.362,12.362,0,0,0,730.1-561Zm-39.6,12c.3.5.1,1-.4,1a1.1,1.1,0,0,1-1.1-1c0-.6.2-1,.4-1C689.7-550,690.2-549.6,690.5-549ZM545.9-536.4c2.9.8,5.1,1.7,4.8,2-.8.8-8.6-.8-10.4-2.2C537.9-538.4,539.5-538.3,545.9-536.4Zm134.9,3.3a34.226,34.226,0,0,0,4.2,1.9c1.6.7,1.9,1.1.9,1.1-1.8.1-8.9-2.6-8.9-3.4S678.9-534.1,680.8-533.1Zm-59.3,2.5c1.7,1.3,2.7,2.8,2.2,3.2-1,1-5.6-1.6-6.8-3.8C615.5-533.8,617.9-533.5,621.5-530.6Zm-171,3.6a2.335,2.335,0,0,1-1.6,1c-.6,0-.7-.5-.4-1a2.039,2.039,0,0,1,1.6-1C450.7-528,450.8-527.6,450.5-527Zm110.9,3.2c4.5,1.7,5.5,2.4,3.8,2.6-2.2.3-10.8-2.4-12.6-4C550.8-526.7,555.2-526,561.4-523.8Zm25.4,1.3c.1.1-.6.5-1.7.8a3.347,3.347,0,0,1-3.2-1c-1.1-1.2-.8-1.3,1.7-.7C585.2-523,586.6-522.6,586.8-522.5Zm-2.8,8c2.7,1.6,2.3,1.8-3,1.5-4.1-.2-5.3-.8-4.5-2.1C577.4-516.4,581.1-516.1,584-514.5ZM399.5-513a3.105,3.105,0,0,1-2.3,1c-1.5,0-1.5-.2-.2-1C399-514.3,400.3-514.3,399.5-513Zm20.5,0a1.1,1.1,0,0,1-1.1,1c-.5,0-.7-.5-.4-1,.3-.6.8-1,1.1-1C419.8-514,420-513.6,420-513Zm82,1a1,1,0,0,1-1,1,1.075,1.075,0,0,1-1-1,1,1,0,0,1,1-1A.945.945,0,0,1,502-512Zm145.2,1.3c-1.7,1-2,1.5-1,2.5.9.9.9,1.2-.1,1.2-.7,0-1.1.6-.8,1.4.6,1.4-1.2,2.5-5.3,3.2-3.1.6-13.6,3.3-17,4.3-4.3,1.3-4.3,1.3-3.5.1.3-.6,1.6-1,2.8-1,3.1,0,5.6-1.8,4-2.8-.9-.5-.2-1.8,2.2-4.5,2.7-3,4.2-3.7,7.2-3.8a33.968,33.968,0,0,0,6.3-.9,29.191,29.191,0,0,1,5-.9h2.5ZM413-510a1,1,0,0,1-1,1,1.075,1.075,0,0,1-1-1,1,1,0,0,1,1-1A.945.945,0,0,1,413-510Zm175.5,3c-.7,1.2-7.9,1.2-11.5,0-1.8-.6-.4-.8,4.8-.9C586.5-508,588.9-507.6,588.5-507Zm-76.9,13.7c-1,1-1.9-.5-1-1.8.6-1.1.8-1.1,1.2,0A2.085,2.085,0,0,1,511.6-493.3Zm-12.6-.3c0,1.2.7,1.3,3.2.5,6.2-1.7,7.2-.9,2.2,1.7a27.539,27.539,0,0,1-10.7,3c-6.9.4-7.2-.9-1.1-4.3C497.1-495.3,499-495.6,499-493.6ZM484-491a1.1,1.1,0,0,1-1.1,1c-.5,0-.7-.5-.4-1,.3-.6.8-1,1.1-1C483.8-492,484-491.6,484-491Zm-31.9,2.5c.1,1.3-6.8,3.1-7.8,2.1-.5-.4.1-1.4,1.2-2.2C447.7-490.2,452-490.1,452.1-488.5ZM491-475c0,1.2-1.7,1.2-4.5,0-1.7-.7-1.5-.9,1.3-.9C489.5-476,491-475.6,491-475Z"/>
      <path id="Trazado_39932" data-name="Trazado 39932" d="M515.6-746.5c-.9,1.4-1.3,2.5-.8,2.5s1.4-1.1,2-2.5,1-2.5.8-2.5A9.157,9.157,0,0,0,515.6-746.5Z"/>
      <path id="Trazado_39933" data-name="Trazado 39933" d="M509.6-730.3a130.561,130.561,0,0,0-3.2,15.6c-.6,4.7,1.2,4.2,1.9-.5.3-1.8,1-6.2,1.6-9.7C511-730.9,510.8-734.3,509.6-730.3Z"/>
      <path id="Trazado_39934" data-name="Trazado 39934" d="M417.6-659.6c-1.8,3.8-2.1,7-.6,6.1,1.1-.7,3.4-8.5,2.7-9.1C419.5-662.9,418.5-661.5,417.6-659.6Z"/>
      <path id="Trazado_39937" data-name="Trazado 39937" d="M506.9-599.3c-1.3,1.6-1.2,1.7.4.4a6.226,6.226,0,0,0,1.7-1.7C509-601.4,508.2-600.9,506.9-599.3Z"/>
      <path id="Trazado_39938" data-name="Trazado 39938" d="M459-591.5c-.8.9-.8,1.5-.2,1.5,1.2,0,2.6-1.9,1.9-2.6C460.5-592.8,459.7-592.4,459-591.5Z"/>
      <path id="Trazado_39939" data-name="Trazado 39939" d="M451.4-576.5c-1,.8-1.4,1.5-.8,1.5a4.313,4.313,0,0,0,2.4-1.5C454.6-578.4,453.9-578.4,451.4-576.5Z"/>
      <path id="Trazado_39940" data-name="Trazado 39940" d="M435.3-574c-2.7,1.6-6.3,6-4.9,6a37.872,37.872,0,0,0,4.6-4C439.7-576.5,439.8-576.8,435.3-574Z"/>
      <path id="Trazado_39941" data-name="Trazado 39941" d="M539.8-572.3a2.026,2.026,0,0,0,1.9-.1c.4-.3-.2-.6-1.3-.5C539.3-572.9,539-572.6,539.8-572.3Z"/>
      <path id="Trazado_39942" data-name="Trazado 39942" d="M448.5-562.1c-.6,2-11.9,8.9-26.5,16.3-4.1,2.1-6.9,3.8-6.1,3.8,2.3,0-.7,2.8-6.4,6.1-5.3,3-9.1,3.7-9.7,1.7-.4-1.2-.9-1-12.2,4.3a18.286,18.286,0,0,1-6.5,1.9,11.812,11.812,0,0,0-5.6,2.1c-3.2,2.2-3.1,2.2,5.8-.1,3.8-1,5.1-1,5.6-.1.6.9,2.1.7,6.1-.9,2.9-1.1,6-1.8,7-1.5a2.327,2.327,0,0,0,2.5-.5c.3-.6,2.9-2.2,5.7-3.6a153.151,153.151,0,0,0,13.6-8.5c4.7-3.2,9-5.9,9.6-5.9s5.2-2.8,10.3-6.2c9.3-6.4,13.2-10.8,9.3-10.8A3.05,3.05,0,0,0,448.5-562.1Z"/>
      <path id="Trazado_39943" data-name="Trazado 39943" d="M417.6-555.9c-4.3,2.2-8.8,4.7-10,5.5-2.1,1.6-2.1,1.6.4.9,4-1.2,20.1-10.5,18-10.4C425.7-559.9,422-558.1,417.6-555.9Z"/>
      <path id="Trazado_39944" data-name="Trazado 39944" d="M316.4-555.9c-1.9,2.2-1.9,2.2.4,1,1.2-.6,2.2-1.6,2.2-2.1C319-558.5,318.5-558.2,316.4-555.9Z"/>
      <path id="Trazado_39945" data-name="Trazado 39945" d="M390.3-546.6c-10.4,4.2-14.1,6.3-8.3,4.6,3.1-.9,20.1-7.9,20.9-8.6C404.4-551.9,399.1-550.2,390.3-546.6Z"/>
      <path id="Trazado_39946" data-name="Trazado 39946" d="M383.7-539.6c-4.8,1.9-9,3.5-9.2,3.8-.2.2,0,1,.5,1.8.8,1.2,1.1,1.2,2.7-.1a47.735,47.735,0,0,1,8.6-4.7c3.7-1.7,6.7-3.3,6.7-3.6C393-543.2,393.7-543.4,383.7-539.6Z"/>
      <path id="Trazado_39947" data-name="Trazado 39947" d="M388.3-537c-3.4,1.4-2.8,2.1.7.9a8.072,8.072,0,0,0,3-1.5C392-538.2,390.8-538,388.3-537Z"/>
      <path id="Trazado_39948" data-name="Trazado 39948" d="M369-534c0,.5.7.7,1.5.4.8-.4,1.5-.8,1.5-1s-.7-.4-1.5-.4S369-534.6,369-534Z"/>
      <path id="Trazado_39949" data-name="Trazado 39949" d="M478.8-534.3a2.026,2.026,0,0,0,1.9-.1c.4-.3-.2-.6-1.3-.5C478.3-534.9,478-534.6,478.8-534.3Z"/>
      <path id="Trazado_39950" data-name="Trazado 39950" d="M508.5-533c.3.5.8,1,1.1,1,.2,0,.4-.5.4-1a1.028,1.028,0,0,0-1.1-1C508.4-534,508.2-533.6,508.5-533Z"/>
      <path id="Trazado_39951" data-name="Trazado 39951" d="M457-517c-1.3.8-1.2,1,.3,1,.9,0,1.7-.5,1.7-1C459-518.2,458.9-518.2,457-517Z"/>
      <path id="Trazado_39952" data-name="Trazado 39952" d="M447.5-515.1c-.6,1.1,6.2,2.7,7.2,1.7.4-.3-.1-.6-1-.6s-1.7-.5-1.7-1C452-516.3,448.3-516.3,447.5-515.1Z"/>
      <path id="Trazado_39953" data-name="Trazado 39953" d="M461-511c-1.3.9-1.3,1,0,1a7.106,7.106,0,0,0,3-1c1.3-.9,1.3-1,0-1A7.107,7.107,0,0,0,461-511Z"/>
      <path id="Trazado_39954" data-name="Trazado 39954" d="M257.1-480.5a7.382,7.382,0,0,0,4.7.8c3.5-.9,1.5-2.3-3.1-2.3C254.5-481.9,254.5-481.9,257.1-480.5Z"/>
      <path id="Trazado_39955" data-name="Trazado 39955" d="M654-465.3c-26.2.5-83.2,2.4-92.3,2.9-5.8.4-9.5,1-8.9,1.6,1.7,1.7,31.1,2.1,75.2.9,48.9-1.3,82.9-2.8,87.5-3.9C722.6-465.4,693.3-466.2,654-465.3Z"/>
      <path id="Trazado_39956" data-name="Trazado 39956" d="M701.5-457c-.7,1.2,2.2,1.2,5,0,1.7-.7,1.5-.9-1.2-.9C703.6-458,701.8-457.6,701.5-457Z"/>
      <path id="Trazado_39957" data-name="Trazado 39957" d="M438.6-268.1c.6.7,5.8,1.4,11.5,1.8,8.8.5,10.2.3,9.1-.8-.9-1-4.5-1.5-11.5-1.7C440.2-269.1,437.8-268.9,438.6-268.1Z"/>
    </g>
  </g>
</svg>
