<svg xmlns="http://www.w3.org/2000/svg" xmlns:xlink="http://www.w3.org/1999/xlink" width="495" height="266" viewBox="0 0 495 266">
  <defs>
    <clipPath id="clip-path">
      <rect id="Rect치ngulo_1795" data-name="Rect치ngulo 1795" width="459.083" height="221.038" fill="none"/>
    </clipPath>
  </defs>
  <g id="Grupo_5032" data-name="Grupo 5032" transform="translate(-19235 -15790)">
    <rect id="Rect치ngulo_1799" data-name="Rect치ngulo 1799" width="495" height="266" transform="translate(19235 15790)" fill="rgba(247,247,247,0)"/>
    <g id="Grupo_5028" data-name="Grupo 5028" transform="translate(19253 15812)">
      <g id="Grupo_5021" data-name="Grupo 5021" clip-path="url(#clip-path)">
        <path id="Trazado_39958" data-name="Trazado 39958" d="M130.217,88.6c47.5-2.7,95.8-3.5,125-2.1,13.2.6,25.4,1.4,27,1.7l3,.5-2.5-2.2c-1.4-1.2-7.1-5.5-12.6-9.5l-10.1-7.4-12.9-1.5c-7.1-.8-15.2-1.5-18.1-1.5-2.8,0-5.4-.3-5.6-.8-.3-.4-.8-4.2-1.2-8.6l-.7-7.9s34.2,2.4,34.2,1c0-1.8-.6-2.1-13-4.6-17.4-3.5-29.9-4.6-54.6-4.6h-24.2l-.5-7c-.3-3.9-.3-7.3,0-7.8.2-.4,2.4-.7,4.8-.7,5.2,0,7.4-2.5,5.5-6.1-1-1.7-1.9-2-6.3-1.8l-5.2.3-1-9.9c-1-9.6-1.1-9.8-1.8-5.1a84.479,84.479,0,0,0-.7,10.2c0,2.9-.4,5.6-1,5.9-.5.3-1,4.1-1,8.3s-1.712,14.588-1.712,14.588S116.017,48.9,115.317,49.7c-.6.5-2.841,3.443,2.059,3.443,5.7,0,13.541-2.143,13.841-1.343.3.7.1,5.1-.3,9.8l-.7,8.5-14.5,1.3c-8,.8-14.9,1.8-15.4,2.3-.6.5-2.8,5.4-5.6,10.9l-3,6h2.2c1.3,0,17.6-.9,36.3-2m7.9-37.7c16.456-2.478,31.656-2.871,46.858-2.594l30.742.922v16.7s-1.84.413-13.811.413c-8,.1-47.189,1.461-52.789,1.861l-10.1.7-.7-8.8c-.3-4.8-.48-9.158-.2-9.2"/>
        <path id="Trazado_39959" data-name="Trazado 39959" d="M222.317,99.8c-7.1.4-14.2,1.1-15.7,1.6l-2.9.7,10.2,10.9,10.2,10.9,24.1-.7c21.5-.6,52.7.2,79.3,2,5.8.4,9.2.3,9.2-.3s-4.6-5.8-10.2-11.5l-10.3-10.6-10-1.1a468.653,468.653,0,0,0-83.9-1.9"/>
        <path id="Trazado_39960" data-name="Trazado 39960" d="M182.917,112l-9.4-8.4-6.6.2c-3.7,0-92.886,3.7-93.751,5.3l-10.427,21s117.078-4.8,122.778-5.1c12.1-.7,12.4.4-2.6-13M88.432,123.36l-15.967.532,5.048-11,14.715-.782Zm24.225-.795s-18.011.885-18.191.706c-.269-.18,3.59-11.31,3.59-11.31l17.871-.771Z"/>
        <path id="Trazado_39961" data-name="Trazado 39961" d="M288.725,133.978l-7.253.713c22.732.95,41.184,2.947,41.584,3.247,3.2,2-14.339,39.362-23.039,49.662l-2.3,2.8,7.7.7c4.3.4,14.8,2,23.3,3.7,14.3,2.7,18,3,48.5,3.8,27.5.7,34.5,1.2,42,2.9l9,2,3.8-4.2c9.7-10.9,23.2-34.4,26.2-45.7,1.2-4.6,1.2-5.2-.3-5.8-.9-.4-17.4-.7-36.7-.7h-35l-.7,7.6c-.7,7.9-6.445,32.44-8.045,35.04-.7,1.1-2.183-.4-1.783-2.5,2.3-12.7,7.828-43.945,6.228-46.445-.6-.8-8.417-2.812-21.317-3.812-18.7-1.4-63.875-3.21-71.875-3.01M333.817,155c1-1.3,2.8-1.5,8.1-1.2,3.7.2,7.3.9,7.9,1.5,2.3,2.3-.3,3.3-8.1,3.3-8.1,0-10.1-.9-7.9-3.6"/>
        <path id="Trazado_39962" data-name="Trazado 39962" d="M165.817,193.2c11.3-.9,26.8-1.6,34.5-1.6,13.9.1,18.2.6,40.9,5.5,15,3.1,30.5,4.2,37.1,2.6,8.9-2.3,16.7-9.9,25.7-25,4.6-7.8,13-26.1,14.2-31.2.6-2.5.4-2.7-4.2-3.2-19.8-2.5-74.6-3.6-125.8-2.6-18.1.4-41.8,1.2-52.5,1.8s-36.1,2-56.5,3.2c-24.1,1.4-37.4,2.5-38.1,3.2-.6.7-15.6,40.7-15.6,40.7l-14.2.1c-16.3.1-15.1,1,4.3,3.4,20.2,2.5,42.8,3.5,87.6,4.2,33.7.4,46.1.2,62.6-1.1m63.1-37.4c1.6-1.6,11.3-1.5,12.7.1,1.8,2.2-.8,3.7-6.5,3.7-5.5,0-8.3-1.7-6.2-3.8m-23,0c1.2-1.2,11.5-1.7,14.2-.6a2.339,2.339,0,0,1,1.6,1.9c0,1.8-2.4,2.5-9,2.5-6.1,0-9-1.6-6.8-3.8M85.317,162c-1.9-.7-2.2-6-.3-6.7,1.8-.8,15.2-.8,17.1-.1s2.1,4.5.4,6.2c-1.2,1.2-14.3,1.7-17.2.6"/>
        <path id="Trazado_39963" data-name="Trazado 39963" d="M192.217,197.5c-3.3.4-11.8,1.8-19,3.2l-13,2.4,18.5.7c10.2.3,20.9,1.1,23.9,1.7,9.2,1.9,44.1,1.1,44.1-.9,0-.4-1-1-2.2-1.3-25.1-5.9-39.3-7.5-52.3-5.8"/>
        <path id="Trazado_39964" data-name="Trazado 39964" d="M111.417,202.6c-16.9-.9-69.9-1.9-69.2-1.2.6.7,24,4.2,34,5.2,14.8,1.4,41.9,1.3,50.7-.2,10.2-1.6,6.5-2.6-15.5-3.8"/>
        <path id="Trazado_39965" data-name="Trazado 39965" d="M407.217,206.1c-8.2-1.5-36.6-1.9-43.5-.6-2.8.5-1.9.8,5,1.4,4.7.4,14.6,1.7,22,2.8a493.442,493.442,0,0,0,56.1,5.3c17.8.6,16.5.2-12.1-4.3-10.7-1.7-23.1-3.8-27.5-4.6"/>
        <path id="Trazado_39966" data-name="Trazado 39966" d="M162.217,211.2a155.819,155.819,0,0,0-19.5.9c-6.3.7-17.3,1.7-24.5,2.1-10.2.6-12.1,1-9,1.5,8.2,1.6,80.4.5,77.3-1.1-1.9-1-15.1-2.9-24.3-3.4"/>
        <path id="Trazado_39967" data-name="Trazado 39967" d="M355.817,211.7c-16.4-1.5-36.2-1.4-57.6.4a518.228,518.228,0,0,1-90.5-1.1c-3.6-.4-6.2-.4-5.9,0,1,1,21.7,5.4,36.9,7.7,20.2,3.1,49.6,3.1,73.5.1,19.1-2.5,39.8-4.2,52.5-4.3,11.1-.1,7.2-1.3-8.9-2.8"/>
      </g>
    </g>
  </g>
</svg>
