<svg xmlns="http://www.w3.org/2000/svg" width="215.59" height="215.588" viewBox="0 0 215.59 215.588">
  <g id="Grupo_5018" data-name="Grupo 5018" transform="translate(-19128.998 -12277.196)">
    <path id="Trazado_39871" data-name="Trazado 39871" d="M215.588,107.794A107.795,107.795,0,1,1,107.8,0,107.794,107.794,0,0,1,215.588,107.794" transform="translate(19129 12277.196)" fill="rgba(255,255,255,0)"/>
    <path id="Trazado_39872" data-name="Trazado 39872" d="M105.858,186.427A107.811,107.811,0,0,0,206.5,117.236c-5.209-1.086-9.471-2.072-9.471-2.072-.09,1.142-4.657,1.354-5.678.852C150.844,96.106,164.912,100.8,149.732,78.6c-3.875-5.666-7.647-14.222-14.388-16.037-24.077-6.482-37.2-1.324-55.523-3.856-6.29-.868-7.371,5.919-10.559,8.414C45.434,85.769,64.509,77.392,46.028,98.268c-9.156,10.345-28.068,15.713-41.473,17.281a107.835,107.835,0,0,0,101.3,70.878" transform="translate(19131.266 12306.357)" fill="#0ea5e9"/>
    <rect id="Rectángulo_1793" data-name="Rectángulo 1793" width="215.588" height="215.588" transform="translate(19129 12277.196)" fill="none"/>
  </g>
</svg>
