<svg xmlns="http://www.w3.org/2000/svg" width="64" height="64" viewBox="0 0 64 64">
  <g id="icon" transform="translate(44 753)">
    <rect id="Rectangle_5" data-name="Rectangle 5" width="64" height="64" transform="translate(-44 -753)" fill="none"/>
    <g id="Group_4" data-name="Group 4" transform="translate(-42.876 -738.134)">
      <g id="Group_4920" data-name="Group 4920" transform="translate(0 0)">
        <path id="Path_11" data-name="Path 11" d="M1.321,23.392a20.673,20.673,0,0,1,19.642-4.906,21.285,21.285,0,0,1,14.056,12.3,4.073,4.073,0,0,1-3.737,5.6l-.122,0A4,4,0,0,1,27.4,33.99a12.954,12.954,0,0,0-8.27-7.395,12.67,12.67,0,0,0-12.19,2.818,4.117,4.117,0,1,1-5.616-6.022" transform="translate(0 -2.116)" fill="#1c764d"/>
        <path id="Path_12" data-name="Path 12" d="M13.687,8.628A29.335,29.335,0,0,1,35.949,15.8a29.12,29.12,0,0,1,8.965,14.45,3.912,3.912,0,0,1-3.736,4.907l-.344,0A3.951,3.951,0,0,1,37,32.2a21.062,21.062,0,0,0-22.71-15.368A4.119,4.119,0,0,1,9.754,13.51a4.233,4.233,0,0,1,3.933-4.882" transform="translate(-1.156 -1.013)" fill="#fb0"/>
        <path id="Path_13" data-name="Path 13" d="M30.028.8A38.108,38.108,0,0,1,42.36,7.554,37.749,37.749,0,0,1,55.368,28.98,4.232,4.232,0,0,1,51.294,34.1h-.128a4.219,4.219,0,0,1-4.175-3.343A29.288,29.288,0,0,0,27.2,8.932a4.28,4.28,0,0,1-2.824-5.2A4.431,4.431,0,0,1,30.028.8" transform="translate(-2.892 -0.07)" fill="#0a254b"/>
        <path id="Path_14" data-name="Path 14" d="M57.96,30.312A37.848,37.848,0,0,0,44.911,7.7a4.209,4.209,0,0,1-.8-5.6l.145-.214A4.143,4.143,0,0,1,50.395.975,46.55,46.55,0,0,1,66.543,28.9a4.349,4.349,0,0,1-8.583,1.41" transform="translate(-5.18 0)" fill="#df0a28"/>
      </g>
    </g>
  </g>
</svg>
