<svg xmlns="http://www.w3.org/2000/svg" width="58.403" height="32.581" viewBox="0 0 58.403 32.581">
  <g id="Grupo_4930" data-name="Grupo 4930" transform="translate(-140.191 -729.709)">
    <path id="Trazado_39748" data-name="Trazado 39748" d="M1.256,23.113a19.656,19.656,0,0,1,18.675-4.664A20.237,20.237,0,0,1,33.3,30.138a3.873,3.873,0,0,1-3.553,5.326l-.116,0a3.806,3.806,0,0,1-3.578-2.277,12.317,12.317,0,0,0-7.863-7.031A12.046,12.046,0,0,0,6.6,28.838a3.914,3.914,0,1,1-5.339-5.725" transform="translate(140.19 726.825)" fill="#1c764d"/>
    <path id="Trazado_39749" data-name="Trazado 39749" d="M13.49,8.621a27.891,27.891,0,0,1,21.166,6.816A27.686,27.686,0,0,1,43.18,29.176a3.72,3.72,0,0,1-3.552,4.665l-.327,0a3.756,3.756,0,0,1-3.65-2.812A20.025,20.025,0,0,0,14.059,16.42a3.917,3.917,0,0,1-4.308-3.157A4.024,4.024,0,0,1,13.49,8.621" transform="translate(138.615 728.328)" fill="#fb0"/>
    <path id="Trazado_39750" data-name="Trazado 39750" d="M29.742.793A36.232,36.232,0,0,1,41.468,7.211,35.891,35.891,0,0,1,53.835,27.582a4.023,4.023,0,0,1-3.873,4.871H49.84a4.011,4.011,0,0,1-3.969-3.178A27.846,27.846,0,0,0,27.051,8.521a4.069,4.069,0,0,1-2.685-4.942A4.213,4.213,0,0,1,29.742.793" transform="translate(136.248 729.614)" fill="#0a254b"/>
    <path id="Trazado_39751" data-name="Trazado 39751" d="M57.243,28.82a35.985,35.985,0,0,0-12.407-21.5A4,4,0,0,1,44.073,2l.138-.2A3.939,3.939,0,0,1,50.05.927,44.259,44.259,0,0,1,65.4,27.48a4.135,4.135,0,0,1-8.161,1.34" transform="translate(133.13 729.709)" fill="#df0a28"/>
  </g>
</svg>
